%TF.GenerationSoftware,KiCad,Pcbnew,(5.1.6)-1*%
%TF.CreationDate,2021-01-22T14:39:17+01:00*%
%TF.ProjectId,LambdaBuffer,4c616d62-6461-4427-9566-6665722e6b69,rev?*%
%TF.SameCoordinates,Original*%
%TF.FileFunction,Soldermask,Top*%
%TF.FilePolarity,Negative*%
%FSLAX46Y46*%
G04 Gerber Fmt 4.6, Leading zero omitted, Abs format (unit mm)*
G04 Created by KiCad (PCBNEW (5.1.6)-1) date 2021-01-22 14:39:17*
%MOMM*%
%LPD*%
G01*
G04 APERTURE LIST*
%ADD10C,1.100000*%
%ADD11R,1.400000X2.100000*%
%ADD12R,2.100000X2.100000*%
%ADD13C,3.100000*%
%ADD14R,3.100000X3.100000*%
G04 APERTURE END LIST*
D10*
%TO.C,U1*%
X121539000Y-101600000D03*
X121539000Y-100330000D03*
X121539000Y-99060000D03*
X121539000Y-93980000D03*
X121539000Y-95250000D03*
X121539000Y-96520000D03*
X121539000Y-97790000D03*
%TD*%
D11*
%TO.C,R3*%
X114590800Y-94259400D03*
D12*
X115740800Y-98259400D03*
D11*
X116890800Y-94259400D03*
%TD*%
%TO.C,R5*%
G36*
G01*
X119540900Y-94075000D02*
X119015900Y-94075000D01*
G75*
G02*
X118753400Y-93812500I0J262500D01*
G01*
X118753400Y-93187500D01*
G75*
G02*
X119015900Y-92925000I262500J0D01*
G01*
X119540900Y-92925000D01*
G75*
G02*
X119803400Y-93187500I0J-262500D01*
G01*
X119803400Y-93812500D01*
G75*
G02*
X119540900Y-94075000I-262500J0D01*
G01*
G37*
G36*
G01*
X119540900Y-95825000D02*
X119015900Y-95825000D01*
G75*
G02*
X118753400Y-95562500I0J262500D01*
G01*
X118753400Y-94937500D01*
G75*
G02*
X119015900Y-94675000I262500J0D01*
G01*
X119540900Y-94675000D01*
G75*
G02*
X119803400Y-94937500I0J-262500D01*
G01*
X119803400Y-95562500D01*
G75*
G02*
X119540900Y-95825000I-262500J0D01*
G01*
G37*
%TD*%
%TO.C,R4*%
G36*
G01*
X119015900Y-98166200D02*
X119540900Y-98166200D01*
G75*
G02*
X119803400Y-98428700I0J-262500D01*
G01*
X119803400Y-99053700D01*
G75*
G02*
X119540900Y-99316200I-262500J0D01*
G01*
X119015900Y-99316200D01*
G75*
G02*
X118753400Y-99053700I0J262500D01*
G01*
X118753400Y-98428700D01*
G75*
G02*
X119015900Y-98166200I262500J0D01*
G01*
G37*
G36*
G01*
X119015900Y-96416200D02*
X119540900Y-96416200D01*
G75*
G02*
X119803400Y-96678700I0J-262500D01*
G01*
X119803400Y-97303700D01*
G75*
G02*
X119540900Y-97566200I-262500J0D01*
G01*
X119015900Y-97566200D01*
G75*
G02*
X118753400Y-97303700I0J262500D01*
G01*
X118753400Y-96678700D01*
G75*
G02*
X119015900Y-96416200I262500J0D01*
G01*
G37*
%TD*%
%TO.C,R2*%
G36*
G01*
X120451600Y-89551900D02*
X120451600Y-90076900D01*
G75*
G02*
X120189100Y-90339400I-262500J0D01*
G01*
X119564100Y-90339400D01*
G75*
G02*
X119301600Y-90076900I0J262500D01*
G01*
X119301600Y-89551900D01*
G75*
G02*
X119564100Y-89289400I262500J0D01*
G01*
X120189100Y-89289400D01*
G75*
G02*
X120451600Y-89551900I0J-262500D01*
G01*
G37*
G36*
G01*
X122201600Y-89551900D02*
X122201600Y-90076900D01*
G75*
G02*
X121939100Y-90339400I-262500J0D01*
G01*
X121314100Y-90339400D01*
G75*
G02*
X121051600Y-90076900I0J262500D01*
G01*
X121051600Y-89551900D01*
G75*
G02*
X121314100Y-89289400I262500J0D01*
G01*
X121939100Y-89289400D01*
G75*
G02*
X122201600Y-89551900I0J-262500D01*
G01*
G37*
%TD*%
%TO.C,R1*%
G36*
G01*
X116907000Y-89551900D02*
X116907000Y-90076900D01*
G75*
G02*
X116644500Y-90339400I-262500J0D01*
G01*
X116019500Y-90339400D01*
G75*
G02*
X115757000Y-90076900I0J262500D01*
G01*
X115757000Y-89551900D01*
G75*
G02*
X116019500Y-89289400I262500J0D01*
G01*
X116644500Y-89289400D01*
G75*
G02*
X116907000Y-89551900I0J-262500D01*
G01*
G37*
G36*
G01*
X118657000Y-89551900D02*
X118657000Y-90076900D01*
G75*
G02*
X118394500Y-90339400I-262500J0D01*
G01*
X117769500Y-90339400D01*
G75*
G02*
X117507000Y-90076900I0J262500D01*
G01*
X117507000Y-89551900D01*
G75*
G02*
X117769500Y-89289400I262500J0D01*
G01*
X118394500Y-89289400D01*
G75*
G02*
X118657000Y-89551900I0J-262500D01*
G01*
G37*
%TD*%
D13*
%TO.C,J3*%
X121412000Y-108775500D03*
D14*
X116332000Y-108775500D03*
%TD*%
D13*
%TO.C,J2*%
X108966000Y-103124000D03*
X108966000Y-98044000D03*
D14*
X108966000Y-92964000D03*
%TD*%
D13*
%TO.C,J1*%
X116332000Y-84836000D03*
D14*
X121412000Y-84836000D03*
%TD*%
M02*
