%TF.GenerationSoftware,KiCad,Pcbnew,(5.1.6)-1*%
%TF.CreationDate,2021-01-22T14:39:17+01:00*%
%TF.ProjectId,LambdaBuffer,4c616d62-6461-4427-9566-6665722e6b69,rev?*%
%TF.SameCoordinates,Original*%
%TF.FileFunction,Paste,Top*%
%TF.FilePolarity,Positive*%
%FSLAX46Y46*%
G04 Gerber Fmt 4.6, Leading zero omitted, Abs format (unit mm)*
G04 Created by KiCad (PCBNEW (5.1.6)-1) date 2021-01-22 14:39:17*
%MOMM*%
%LPD*%
G01*
G04 APERTURE LIST*
%ADD10R,1.300000X2.000000*%
%ADD11R,2.000000X2.000000*%
G04 APERTURE END LIST*
D10*
%TO.C,R3*%
X114590800Y-94259400D03*
D11*
X115740800Y-98259400D03*
D10*
X116890800Y-94259400D03*
%TD*%
%TO.C,R5*%
G36*
G01*
X119515900Y-94025000D02*
X119040900Y-94025000D01*
G75*
G02*
X118803400Y-93787500I0J237500D01*
G01*
X118803400Y-93212500D01*
G75*
G02*
X119040900Y-92975000I237500J0D01*
G01*
X119515900Y-92975000D01*
G75*
G02*
X119753400Y-93212500I0J-237500D01*
G01*
X119753400Y-93787500D01*
G75*
G02*
X119515900Y-94025000I-237500J0D01*
G01*
G37*
G36*
G01*
X119515900Y-95775000D02*
X119040900Y-95775000D01*
G75*
G02*
X118803400Y-95537500I0J237500D01*
G01*
X118803400Y-94962500D01*
G75*
G02*
X119040900Y-94725000I237500J0D01*
G01*
X119515900Y-94725000D01*
G75*
G02*
X119753400Y-94962500I0J-237500D01*
G01*
X119753400Y-95537500D01*
G75*
G02*
X119515900Y-95775000I-237500J0D01*
G01*
G37*
%TD*%
%TO.C,R4*%
G36*
G01*
X119040900Y-98216200D02*
X119515900Y-98216200D01*
G75*
G02*
X119753400Y-98453700I0J-237500D01*
G01*
X119753400Y-99028700D01*
G75*
G02*
X119515900Y-99266200I-237500J0D01*
G01*
X119040900Y-99266200D01*
G75*
G02*
X118803400Y-99028700I0J237500D01*
G01*
X118803400Y-98453700D01*
G75*
G02*
X119040900Y-98216200I237500J0D01*
G01*
G37*
G36*
G01*
X119040900Y-96466200D02*
X119515900Y-96466200D01*
G75*
G02*
X119753400Y-96703700I0J-237500D01*
G01*
X119753400Y-97278700D01*
G75*
G02*
X119515900Y-97516200I-237500J0D01*
G01*
X119040900Y-97516200D01*
G75*
G02*
X118803400Y-97278700I0J237500D01*
G01*
X118803400Y-96703700D01*
G75*
G02*
X119040900Y-96466200I237500J0D01*
G01*
G37*
%TD*%
%TO.C,R2*%
G36*
G01*
X120401600Y-89576900D02*
X120401600Y-90051900D01*
G75*
G02*
X120164100Y-90289400I-237500J0D01*
G01*
X119589100Y-90289400D01*
G75*
G02*
X119351600Y-90051900I0J237500D01*
G01*
X119351600Y-89576900D01*
G75*
G02*
X119589100Y-89339400I237500J0D01*
G01*
X120164100Y-89339400D01*
G75*
G02*
X120401600Y-89576900I0J-237500D01*
G01*
G37*
G36*
G01*
X122151600Y-89576900D02*
X122151600Y-90051900D01*
G75*
G02*
X121914100Y-90289400I-237500J0D01*
G01*
X121339100Y-90289400D01*
G75*
G02*
X121101600Y-90051900I0J237500D01*
G01*
X121101600Y-89576900D01*
G75*
G02*
X121339100Y-89339400I237500J0D01*
G01*
X121914100Y-89339400D01*
G75*
G02*
X122151600Y-89576900I0J-237500D01*
G01*
G37*
%TD*%
%TO.C,R1*%
G36*
G01*
X116857000Y-89576900D02*
X116857000Y-90051900D01*
G75*
G02*
X116619500Y-90289400I-237500J0D01*
G01*
X116044500Y-90289400D01*
G75*
G02*
X115807000Y-90051900I0J237500D01*
G01*
X115807000Y-89576900D01*
G75*
G02*
X116044500Y-89339400I237500J0D01*
G01*
X116619500Y-89339400D01*
G75*
G02*
X116857000Y-89576900I0J-237500D01*
G01*
G37*
G36*
G01*
X118607000Y-89576900D02*
X118607000Y-90051900D01*
G75*
G02*
X118369500Y-90289400I-237500J0D01*
G01*
X117794500Y-90289400D01*
G75*
G02*
X117557000Y-90051900I0J237500D01*
G01*
X117557000Y-89576900D01*
G75*
G02*
X117794500Y-89339400I237500J0D01*
G01*
X118369500Y-89339400D01*
G75*
G02*
X118607000Y-89576900I0J-237500D01*
G01*
G37*
%TD*%
M02*
