%TF.GenerationSoftware,KiCad,Pcbnew,(5.1.6)-1*%
%TF.CreationDate,2021-01-22T14:39:17+01:00*%
%TF.ProjectId,LambdaBuffer,4c616d62-6461-4427-9566-6665722e6b69,rev?*%
%TF.SameCoordinates,Original*%
%TF.FileFunction,Legend,Bot*%
%TF.FilePolarity,Positive*%
%FSLAX46Y46*%
G04 Gerber Fmt 4.6, Leading zero omitted, Abs format (unit mm)*
G04 Created by KiCad (PCBNEW (5.1.6)-1) date 2021-01-22 14:39:17*
%MOMM*%
%LPD*%
G01*
G04 APERTURE LIST*
%ADD10C,0.120000*%
%ADD11C,0.150000*%
G04 APERTURE END LIST*
D10*
%TO.C,R6*%
X123492800Y-99626267D02*
X123492800Y-99283733D01*
X124512800Y-99626267D02*
X124512800Y-99283733D01*
%TO.C,C6*%
X123492800Y-96030867D02*
X123492800Y-95688333D01*
X124512800Y-96030867D02*
X124512800Y-95688333D01*
%TO.C,C5*%
X118616000Y-98610267D02*
X118616000Y-98267733D01*
X119636000Y-98610267D02*
X119636000Y-98267733D01*
%TO.C,C4*%
X117041200Y-96818267D02*
X117041200Y-96475733D01*
X118061200Y-96818267D02*
X118061200Y-96475733D01*
%TO.C,C3*%
X116461000Y-100017733D02*
X116461000Y-100360267D01*
X115441000Y-100017733D02*
X115441000Y-100360267D01*
%TO.C,C2*%
X116461000Y-96475733D02*
X116461000Y-96818267D01*
X115441000Y-96475733D02*
X115441000Y-96818267D01*
%TO.C,C1*%
X117028500Y-100360267D02*
X117028500Y-100017733D01*
X118048500Y-100360267D02*
X118048500Y-100017733D01*
%TO.C,R6*%
D11*
X125885180Y-99288333D02*
X125408990Y-98955000D01*
X125885180Y-98716904D02*
X124885180Y-98716904D01*
X124885180Y-99097857D01*
X124932800Y-99193095D01*
X124980419Y-99240714D01*
X125075657Y-99288333D01*
X125218514Y-99288333D01*
X125313752Y-99240714D01*
X125361371Y-99193095D01*
X125408990Y-99097857D01*
X125408990Y-98716904D01*
X124885180Y-100145476D02*
X124885180Y-99955000D01*
X124932800Y-99859761D01*
X124980419Y-99812142D01*
X125123276Y-99716904D01*
X125313752Y-99669285D01*
X125694704Y-99669285D01*
X125789942Y-99716904D01*
X125837561Y-99764523D01*
X125885180Y-99859761D01*
X125885180Y-100050238D01*
X125837561Y-100145476D01*
X125789942Y-100193095D01*
X125694704Y-100240714D01*
X125456609Y-100240714D01*
X125361371Y-100193095D01*
X125313752Y-100145476D01*
X125266133Y-100050238D01*
X125266133Y-99859761D01*
X125313752Y-99764523D01*
X125361371Y-99716904D01*
X125456609Y-99669285D01*
%TO.C,C6*%
X125789942Y-95692933D02*
X125837561Y-95645314D01*
X125885180Y-95502457D01*
X125885180Y-95407219D01*
X125837561Y-95264361D01*
X125742323Y-95169123D01*
X125647085Y-95121504D01*
X125456609Y-95073885D01*
X125313752Y-95073885D01*
X125123276Y-95121504D01*
X125028038Y-95169123D01*
X124932800Y-95264361D01*
X124885180Y-95407219D01*
X124885180Y-95502457D01*
X124932800Y-95645314D01*
X124980419Y-95692933D01*
X124885180Y-96550076D02*
X124885180Y-96359600D01*
X124932800Y-96264361D01*
X124980419Y-96216742D01*
X125123276Y-96121504D01*
X125313752Y-96073885D01*
X125694704Y-96073885D01*
X125789942Y-96121504D01*
X125837561Y-96169123D01*
X125885180Y-96264361D01*
X125885180Y-96454838D01*
X125837561Y-96550076D01*
X125789942Y-96597695D01*
X125694704Y-96645314D01*
X125456609Y-96645314D01*
X125361371Y-96597695D01*
X125313752Y-96550076D01*
X125266133Y-96454838D01*
X125266133Y-96264361D01*
X125313752Y-96169123D01*
X125361371Y-96121504D01*
X125456609Y-96073885D01*
%TO.C,C5*%
X119483142Y-100925333D02*
X119530761Y-100877714D01*
X119578380Y-100734857D01*
X119578380Y-100639619D01*
X119530761Y-100496761D01*
X119435523Y-100401523D01*
X119340285Y-100353904D01*
X119149809Y-100306285D01*
X119006952Y-100306285D01*
X118816476Y-100353904D01*
X118721238Y-100401523D01*
X118626000Y-100496761D01*
X118578380Y-100639619D01*
X118578380Y-100734857D01*
X118626000Y-100877714D01*
X118673619Y-100925333D01*
X118578380Y-101830095D02*
X118578380Y-101353904D01*
X119054571Y-101306285D01*
X119006952Y-101353904D01*
X118959333Y-101449142D01*
X118959333Y-101687238D01*
X119006952Y-101782476D01*
X119054571Y-101830095D01*
X119149809Y-101877714D01*
X119387904Y-101877714D01*
X119483142Y-101830095D01*
X119530761Y-101782476D01*
X119578380Y-101687238D01*
X119578380Y-101449142D01*
X119530761Y-101353904D01*
X119483142Y-101306285D01*
%TO.C,C4*%
X117959142Y-93813333D02*
X118006761Y-93765714D01*
X118054380Y-93622857D01*
X118054380Y-93527619D01*
X118006761Y-93384761D01*
X117911523Y-93289523D01*
X117816285Y-93241904D01*
X117625809Y-93194285D01*
X117482952Y-93194285D01*
X117292476Y-93241904D01*
X117197238Y-93289523D01*
X117102000Y-93384761D01*
X117054380Y-93527619D01*
X117054380Y-93622857D01*
X117102000Y-93765714D01*
X117149619Y-93813333D01*
X117387714Y-94670476D02*
X118054380Y-94670476D01*
X117006761Y-94432380D02*
X117721047Y-94194285D01*
X117721047Y-94813333D01*
%TO.C,C3*%
X116435142Y-102703333D02*
X116482761Y-102655714D01*
X116530380Y-102512857D01*
X116530380Y-102417619D01*
X116482761Y-102274761D01*
X116387523Y-102179523D01*
X116292285Y-102131904D01*
X116101809Y-102084285D01*
X115958952Y-102084285D01*
X115768476Y-102131904D01*
X115673238Y-102179523D01*
X115578000Y-102274761D01*
X115530380Y-102417619D01*
X115530380Y-102512857D01*
X115578000Y-102655714D01*
X115625619Y-102703333D01*
X115530380Y-103036666D02*
X115530380Y-103655714D01*
X115911333Y-103322380D01*
X115911333Y-103465238D01*
X115958952Y-103560476D01*
X116006571Y-103608095D01*
X116101809Y-103655714D01*
X116339904Y-103655714D01*
X116435142Y-103608095D01*
X116482761Y-103560476D01*
X116530380Y-103465238D01*
X116530380Y-103179523D01*
X116482761Y-103084285D01*
X116435142Y-103036666D01*
%TO.C,C2*%
X116181142Y-93813333D02*
X116228761Y-93765714D01*
X116276380Y-93622857D01*
X116276380Y-93527619D01*
X116228761Y-93384761D01*
X116133523Y-93289523D01*
X116038285Y-93241904D01*
X115847809Y-93194285D01*
X115704952Y-93194285D01*
X115514476Y-93241904D01*
X115419238Y-93289523D01*
X115324000Y-93384761D01*
X115276380Y-93527619D01*
X115276380Y-93622857D01*
X115324000Y-93765714D01*
X115371619Y-93813333D01*
X115371619Y-94194285D02*
X115324000Y-94241904D01*
X115276380Y-94337142D01*
X115276380Y-94575238D01*
X115324000Y-94670476D01*
X115371619Y-94718095D01*
X115466857Y-94765714D01*
X115562095Y-94765714D01*
X115704952Y-94718095D01*
X116276380Y-94146666D01*
X116276380Y-94765714D01*
%TO.C,C1*%
X117959142Y-102703333D02*
X118006761Y-102655714D01*
X118054380Y-102512857D01*
X118054380Y-102417619D01*
X118006761Y-102274761D01*
X117911523Y-102179523D01*
X117816285Y-102131904D01*
X117625809Y-102084285D01*
X117482952Y-102084285D01*
X117292476Y-102131904D01*
X117197238Y-102179523D01*
X117102000Y-102274761D01*
X117054380Y-102417619D01*
X117054380Y-102512857D01*
X117102000Y-102655714D01*
X117149619Y-102703333D01*
X118054380Y-103655714D02*
X118054380Y-103084285D01*
X118054380Y-103370000D02*
X117054380Y-103370000D01*
X117197238Y-103274761D01*
X117292476Y-103179523D01*
X117340095Y-103084285D01*
%TD*%
M02*
