%TF.GenerationSoftware,KiCad,Pcbnew,(5.1.6)-1*%
%TF.CreationDate,2021-01-22T14:39:17+01:00*%
%TF.ProjectId,LambdaBuffer,4c616d62-6461-4427-9566-6665722e6b69,rev?*%
%TF.SameCoordinates,Original*%
%TF.FileFunction,Legend,Top*%
%TF.FilePolarity,Positive*%
%FSLAX46Y46*%
G04 Gerber Fmt 4.6, Leading zero omitted, Abs format (unit mm)*
G04 Created by KiCad (PCBNEW (5.1.6)-1) date 2021-01-22 14:39:17*
%MOMM*%
%LPD*%
G01*
G04 APERTURE LIST*
%ADD10C,0.300000*%
%ADD11C,0.125000*%
%ADD12C,0.120000*%
%ADD13C,0.150000*%
G04 APERTURE END LIST*
D10*
X105537428Y-89253142D02*
X105751714Y-89324571D01*
X106108857Y-89324571D01*
X106251714Y-89253142D01*
X106323142Y-89181714D01*
X106394571Y-89038857D01*
X106394571Y-88896000D01*
X106323142Y-88753142D01*
X106251714Y-88681714D01*
X106108857Y-88610285D01*
X105823142Y-88538857D01*
X105680285Y-88467428D01*
X105608857Y-88396000D01*
X105537428Y-88253142D01*
X105537428Y-88110285D01*
X105608857Y-87967428D01*
X105680285Y-87896000D01*
X105823142Y-87824571D01*
X106180285Y-87824571D01*
X106394571Y-87896000D01*
X107680285Y-88324571D02*
X107680285Y-89324571D01*
X107037428Y-88324571D02*
X107037428Y-89110285D01*
X107108857Y-89253142D01*
X107251714Y-89324571D01*
X107466000Y-89324571D01*
X107608857Y-89253142D01*
X107680285Y-89181714D01*
X108394571Y-88324571D02*
X108394571Y-89824571D01*
X108394571Y-88396000D02*
X108537428Y-88324571D01*
X108823142Y-88324571D01*
X108966000Y-88396000D01*
X109037428Y-88467428D01*
X109108857Y-88610285D01*
X109108857Y-89038857D01*
X109037428Y-89181714D01*
X108966000Y-89253142D01*
X108823142Y-89324571D01*
X108537428Y-89324571D01*
X108394571Y-89253142D01*
X109751714Y-88324571D02*
X109751714Y-89824571D01*
X109751714Y-88396000D02*
X109894571Y-88324571D01*
X110180285Y-88324571D01*
X110323142Y-88396000D01*
X110394571Y-88467428D01*
X110466000Y-88610285D01*
X110466000Y-89038857D01*
X110394571Y-89181714D01*
X110323142Y-89253142D01*
X110180285Y-89324571D01*
X109894571Y-89324571D01*
X109751714Y-89253142D01*
X111323142Y-89324571D02*
X111180285Y-89253142D01*
X111108857Y-89110285D01*
X111108857Y-87824571D01*
X111751714Y-88324571D02*
X112108857Y-89324571D01*
X112466000Y-88324571D02*
X112108857Y-89324571D01*
X111966000Y-89681714D01*
X111894571Y-89753142D01*
X111751714Y-89824571D01*
D11*
X121602476Y-113248285D02*
X121221523Y-113248285D01*
X116141523Y-113319714D02*
X116522476Y-113319714D01*
X116332000Y-113510190D02*
X116332000Y-113129238D01*
D10*
X125750000Y-105350571D02*
X126035714Y-105350571D01*
X126178571Y-105422000D01*
X126321428Y-105564857D01*
X126392857Y-105850571D01*
X126392857Y-106350571D01*
X126321428Y-106636285D01*
X126178571Y-106779142D01*
X126035714Y-106850571D01*
X125750000Y-106850571D01*
X125607142Y-106779142D01*
X125464285Y-106636285D01*
X125392857Y-106350571D01*
X125392857Y-105850571D01*
X125464285Y-105564857D01*
X125607142Y-105422000D01*
X125750000Y-105350571D01*
X127678571Y-105850571D02*
X127678571Y-106850571D01*
X127035714Y-105850571D02*
X127035714Y-106636285D01*
X127107142Y-106779142D01*
X127250000Y-106850571D01*
X127464285Y-106850571D01*
X127607142Y-106779142D01*
X127678571Y-106707714D01*
X128178571Y-105850571D02*
X128750000Y-105850571D01*
X128392857Y-105350571D02*
X128392857Y-106636285D01*
X128464285Y-106779142D01*
X128607142Y-106850571D01*
X128750000Y-106850571D01*
D11*
X104429714Y-93154476D02*
X104429714Y-92773523D01*
X104203523Y-103159714D02*
X104584476Y-103159714D01*
X104394000Y-103350190D02*
X104394000Y-102969238D01*
X121221523Y-80299714D02*
X121602476Y-80299714D01*
X116141523Y-80299714D02*
X116522476Y-80299714D01*
X116332000Y-80490190D02*
X116332000Y-80109238D01*
D10*
X124992000Y-87983142D02*
X125206285Y-88054571D01*
X125563428Y-88054571D01*
X125706285Y-87983142D01*
X125777714Y-87911714D01*
X125849142Y-87768857D01*
X125849142Y-87626000D01*
X125777714Y-87483142D01*
X125706285Y-87411714D01*
X125563428Y-87340285D01*
X125277714Y-87268857D01*
X125134857Y-87197428D01*
X125063428Y-87126000D01*
X124992000Y-86983142D01*
X124992000Y-86840285D01*
X125063428Y-86697428D01*
X125134857Y-86626000D01*
X125277714Y-86554571D01*
X125634857Y-86554571D01*
X125849142Y-86626000D01*
X127063428Y-87983142D02*
X126920571Y-88054571D01*
X126634857Y-88054571D01*
X126492000Y-87983142D01*
X126420571Y-87840285D01*
X126420571Y-87268857D01*
X126492000Y-87126000D01*
X126634857Y-87054571D01*
X126920571Y-87054571D01*
X127063428Y-87126000D01*
X127134857Y-87268857D01*
X127134857Y-87411714D01*
X126420571Y-87554571D01*
X127563428Y-87054571D02*
X128134857Y-87054571D01*
X127777714Y-86554571D02*
X127777714Y-87840285D01*
X127849142Y-87983142D01*
X127992000Y-88054571D01*
X128134857Y-88054571D01*
D12*
%TO.C,U1*%
X124714000Y-99695000D02*
X123444000Y-99695000D01*
X124714000Y-95885000D02*
X123444000Y-95885000D01*
X123444000Y-92075000D02*
X123444000Y-103505000D01*
X120269000Y-92075000D02*
X124714000Y-92075000D01*
X120269000Y-103505000D02*
X124714000Y-103505000D01*
X120269000Y-92075000D02*
X120269000Y-103505000D01*
X124714000Y-102870000D02*
X124714000Y-103505000D01*
X124714000Y-92710000D02*
X124714000Y-92075000D01*
X124714000Y-92710000D02*
X124714000Y-102870000D01*
%TO.C,R3*%
X118110800Y-93889400D02*
X118110800Y-98629400D01*
X113370800Y-93889400D02*
X113370800Y-98629400D01*
X116980800Y-98629400D02*
X118110800Y-98629400D01*
X113370800Y-98629400D02*
X114500800Y-98629400D01*
X115481800Y-93889400D02*
X116000800Y-93889400D01*
X113370800Y-93889400D02*
X113701800Y-93889400D01*
X117780800Y-93889400D02*
X118110800Y-93889400D01*
%TO.C,R5*%
X119788400Y-94546267D02*
X119788400Y-94203733D01*
X118768400Y-94546267D02*
X118768400Y-94203733D01*
%TO.C,R4*%
X118768400Y-97694933D02*
X118768400Y-98037467D01*
X119788400Y-97694933D02*
X119788400Y-98037467D01*
%TO.C,R2*%
X120922867Y-89304400D02*
X120580333Y-89304400D01*
X120922867Y-90324400D02*
X120580333Y-90324400D01*
%TO.C,R1*%
X117378267Y-89304400D02*
X117035733Y-89304400D01*
X117378267Y-90324400D02*
X117035733Y-90324400D01*
%TO.C,J3*%
X113792000Y-112585500D02*
X123952000Y-112585500D01*
X113792000Y-104965500D02*
X113792000Y-112585500D01*
X123952000Y-104965500D02*
X113792000Y-104965500D01*
X123952000Y-112585500D02*
X123952000Y-104965500D01*
X123952000Y-111315500D02*
X113792000Y-111315500D01*
%TO.C,J2*%
X105156000Y-90424000D02*
X105156000Y-105664000D01*
X112776000Y-90424000D02*
X112776000Y-105664000D01*
X106426000Y-90424000D02*
X106426000Y-105664000D01*
X105156000Y-105664000D02*
X112776000Y-105664000D01*
X105156000Y-90424000D02*
X112776000Y-90424000D01*
%TO.C,J1*%
X123952000Y-81026000D02*
X113792000Y-81026000D01*
X123952000Y-88646000D02*
X123952000Y-81026000D01*
X113792000Y-88646000D02*
X123952000Y-88646000D01*
X113792000Y-81026000D02*
X113792000Y-88646000D01*
X113792000Y-82296000D02*
X123952000Y-82296000D01*
%TO.C,U1*%
D13*
X124928380Y-93471904D02*
X125737904Y-93471904D01*
X125833142Y-93424285D01*
X125880761Y-93376666D01*
X125928380Y-93281428D01*
X125928380Y-93090952D01*
X125880761Y-92995714D01*
X125833142Y-92948095D01*
X125737904Y-92900476D01*
X124928380Y-92900476D01*
X125928380Y-91900476D02*
X125928380Y-92471904D01*
X125928380Y-92186190D02*
X124928380Y-92186190D01*
X125071238Y-92281428D01*
X125166476Y-92376666D01*
X125214095Y-92471904D01*
%TO.C,R3*%
X115657333Y-92654380D02*
X115324000Y-92178190D01*
X115085904Y-92654380D02*
X115085904Y-91654380D01*
X115466857Y-91654380D01*
X115562095Y-91702000D01*
X115609714Y-91749619D01*
X115657333Y-91844857D01*
X115657333Y-91987714D01*
X115609714Y-92082952D01*
X115562095Y-92130571D01*
X115466857Y-92178190D01*
X115085904Y-92178190D01*
X115990666Y-91654380D02*
X116609714Y-91654380D01*
X116276380Y-92035333D01*
X116419238Y-92035333D01*
X116514476Y-92082952D01*
X116562095Y-92130571D01*
X116609714Y-92225809D01*
X116609714Y-92463904D01*
X116562095Y-92559142D01*
X116514476Y-92606761D01*
X116419238Y-92654380D01*
X116133523Y-92654380D01*
X116038285Y-92606761D01*
X115990666Y-92559142D01*
%TO.C,R5*%
X119832380Y-91860666D02*
X119356190Y-92194000D01*
X119832380Y-92432095D02*
X118832380Y-92432095D01*
X118832380Y-92051142D01*
X118880000Y-91955904D01*
X118927619Y-91908285D01*
X119022857Y-91860666D01*
X119165714Y-91860666D01*
X119260952Y-91908285D01*
X119308571Y-91955904D01*
X119356190Y-92051142D01*
X119356190Y-92432095D01*
X118832380Y-90955904D02*
X118832380Y-91432095D01*
X119308571Y-91479714D01*
X119260952Y-91432095D01*
X119213333Y-91336857D01*
X119213333Y-91098761D01*
X119260952Y-91003523D01*
X119308571Y-90955904D01*
X119403809Y-90908285D01*
X119641904Y-90908285D01*
X119737142Y-90955904D01*
X119784761Y-91003523D01*
X119832380Y-91098761D01*
X119832380Y-91336857D01*
X119784761Y-91432095D01*
X119737142Y-91479714D01*
%TO.C,R4*%
X119832380Y-100750666D02*
X119356190Y-101084000D01*
X119832380Y-101322095D02*
X118832380Y-101322095D01*
X118832380Y-100941142D01*
X118880000Y-100845904D01*
X118927619Y-100798285D01*
X119022857Y-100750666D01*
X119165714Y-100750666D01*
X119260952Y-100798285D01*
X119308571Y-100845904D01*
X119356190Y-100941142D01*
X119356190Y-101322095D01*
X119165714Y-99893523D02*
X119832380Y-99893523D01*
X118784761Y-100131619D02*
X119499047Y-100369714D01*
X119499047Y-99750666D01*
%TO.C,R2*%
X120584933Y-91696780D02*
X120251600Y-91220590D01*
X120013504Y-91696780D02*
X120013504Y-90696780D01*
X120394457Y-90696780D01*
X120489695Y-90744400D01*
X120537314Y-90792019D01*
X120584933Y-90887257D01*
X120584933Y-91030114D01*
X120537314Y-91125352D01*
X120489695Y-91172971D01*
X120394457Y-91220590D01*
X120013504Y-91220590D01*
X120965885Y-90792019D02*
X121013504Y-90744400D01*
X121108742Y-90696780D01*
X121346838Y-90696780D01*
X121442076Y-90744400D01*
X121489695Y-90792019D01*
X121537314Y-90887257D01*
X121537314Y-90982495D01*
X121489695Y-91125352D01*
X120918266Y-91696780D01*
X121537314Y-91696780D01*
%TO.C,R1*%
X117040333Y-91696780D02*
X116707000Y-91220590D01*
X116468904Y-91696780D02*
X116468904Y-90696780D01*
X116849857Y-90696780D01*
X116945095Y-90744400D01*
X116992714Y-90792019D01*
X117040333Y-90887257D01*
X117040333Y-91030114D01*
X116992714Y-91125352D01*
X116945095Y-91172971D01*
X116849857Y-91220590D01*
X116468904Y-91220590D01*
X117992714Y-91696780D02*
X117421285Y-91696780D01*
X117707000Y-91696780D02*
X117707000Y-90696780D01*
X117611761Y-90839638D01*
X117516523Y-90934876D01*
X117421285Y-90982495D01*
%TO.C,J3*%
X115998666Y-103592380D02*
X115998666Y-104306666D01*
X115951047Y-104449523D01*
X115855809Y-104544761D01*
X115712952Y-104592380D01*
X115617714Y-104592380D01*
X116379619Y-103592380D02*
X116998666Y-103592380D01*
X116665333Y-103973333D01*
X116808190Y-103973333D01*
X116903428Y-104020952D01*
X116951047Y-104068571D01*
X116998666Y-104163809D01*
X116998666Y-104401904D01*
X116951047Y-104497142D01*
X116903428Y-104544761D01*
X116808190Y-104592380D01*
X116522476Y-104592380D01*
X116427238Y-104544761D01*
X116379619Y-104497142D01*
%TO.C,J2*%
X111172666Y-106386380D02*
X111172666Y-107100666D01*
X111125047Y-107243523D01*
X111029809Y-107338761D01*
X110886952Y-107386380D01*
X110791714Y-107386380D01*
X111601238Y-106481619D02*
X111648857Y-106434000D01*
X111744095Y-106386380D01*
X111982190Y-106386380D01*
X112077428Y-106434000D01*
X112125047Y-106481619D01*
X112172666Y-106576857D01*
X112172666Y-106672095D01*
X112125047Y-106814952D01*
X111553619Y-107386380D01*
X112172666Y-107386380D01*
%TO.C,J1*%
X112188666Y-84288380D02*
X112188666Y-85002666D01*
X112141047Y-85145523D01*
X112045809Y-85240761D01*
X111902952Y-85288380D01*
X111807714Y-85288380D01*
X113188666Y-85288380D02*
X112617238Y-85288380D01*
X112902952Y-85288380D02*
X112902952Y-84288380D01*
X112807714Y-84431238D01*
X112712476Y-84526476D01*
X112617238Y-84574095D01*
%TD*%
M02*
