%TF.GenerationSoftware,KiCad,Pcbnew,(5.1.6)-1*%
%TF.CreationDate,2021-01-22T14:39:17+01:00*%
%TF.ProjectId,LambdaBuffer,4c616d62-6461-4427-9566-6665722e6b69,rev?*%
%TF.SameCoordinates,Original*%
%TF.FileFunction,Copper,L2,Bot*%
%TF.FilePolarity,Positive*%
%FSLAX46Y46*%
G04 Gerber Fmt 4.6, Leading zero omitted, Abs format (unit mm)*
G04 Created by KiCad (PCBNEW (5.1.6)-1) date 2021-01-22 14:39:17*
%MOMM*%
%LPD*%
G01*
G04 APERTURE LIST*
%TA.AperFunction,ComponentPad*%
%ADD10C,1.000000*%
%TD*%
%TA.AperFunction,ComponentPad*%
%ADD11C,3.000000*%
%TD*%
%TA.AperFunction,ComponentPad*%
%ADD12R,3.000000X3.000000*%
%TD*%
%TA.AperFunction,ViaPad*%
%ADD13C,5.000000*%
%TD*%
%TA.AperFunction,Conductor*%
%ADD14C,0.750000*%
%TD*%
%TA.AperFunction,Conductor*%
%ADD15C,0.250000*%
%TD*%
G04 APERTURE END LIST*
D10*
%TO.P,U1,7*%
%TO.N,+9V*%
X121539000Y-101600000D03*
%TO.P,U1,6*%
%TO.N,Net-(J3-Pad1)*%
X121539000Y-100330000D03*
%TO.P,U1,5*%
%TO.N,+9V*%
X121539000Y-99060000D03*
%TO.P,U1,1*%
%TO.N,Net-(R1-Pad1)*%
X121539000Y-93980000D03*
%TO.P,U1,2*%
%TO.N,Net-(R4-Pad1)*%
X121539000Y-95250000D03*
%TO.P,U1,3*%
%TO.N,Net-(R3-Pad1)*%
X121539000Y-96520000D03*
%TO.P,U1,4*%
%TO.N,-9V*%
X121539000Y-97790000D03*
%TD*%
%TO.P,R6,2*%
%TO.N,Net-(C6-Pad1)*%
%TA.AperFunction,SMDPad,CuDef*%
G36*
G01*
X124240300Y-99105000D02*
X123765300Y-99105000D01*
G75*
G02*
X123527800Y-98867500I0J237500D01*
G01*
X123527800Y-98292500D01*
G75*
G02*
X123765300Y-98055000I237500J0D01*
G01*
X124240300Y-98055000D01*
G75*
G02*
X124477800Y-98292500I0J-237500D01*
G01*
X124477800Y-98867500D01*
G75*
G02*
X124240300Y-99105000I-237500J0D01*
G01*
G37*
%TD.AperFunction*%
%TO.P,R6,1*%
%TO.N,Net-(J3-Pad1)*%
%TA.AperFunction,SMDPad,CuDef*%
G36*
G01*
X124240300Y-100855000D02*
X123765300Y-100855000D01*
G75*
G02*
X123527800Y-100617500I0J237500D01*
G01*
X123527800Y-100042500D01*
G75*
G02*
X123765300Y-99805000I237500J0D01*
G01*
X124240300Y-99805000D01*
G75*
G02*
X124477800Y-100042500I0J-237500D01*
G01*
X124477800Y-100617500D01*
G75*
G02*
X124240300Y-100855000I-237500J0D01*
G01*
G37*
%TD.AperFunction*%
%TD*%
D11*
%TO.P,J3,2*%
%TO.N,GND*%
X121412000Y-108775500D03*
D12*
%TO.P,J3,1*%
%TO.N,Net-(J3-Pad1)*%
X116332000Y-108775500D03*
%TD*%
D11*
%TO.P,J2,3*%
%TO.N,+9V*%
X108966000Y-103124000D03*
%TO.P,J2,2*%
%TO.N,GND*%
X108966000Y-98044000D03*
D12*
%TO.P,J2,1*%
%TO.N,-9V*%
X108966000Y-92964000D03*
%TD*%
D11*
%TO.P,J1,2*%
%TO.N,Net-(J1-Pad2)*%
X116332000Y-84836000D03*
D12*
%TO.P,J1,1*%
%TO.N,GND*%
X121412000Y-84836000D03*
%TD*%
%TO.P,C6,2*%
%TO.N,GND*%
%TA.AperFunction,SMDPad,CuDef*%
G36*
G01*
X124240300Y-95509600D02*
X123765300Y-95509600D01*
G75*
G02*
X123527800Y-95272100I0J237500D01*
G01*
X123527800Y-94697100D01*
G75*
G02*
X123765300Y-94459600I237500J0D01*
G01*
X124240300Y-94459600D01*
G75*
G02*
X124477800Y-94697100I0J-237500D01*
G01*
X124477800Y-95272100D01*
G75*
G02*
X124240300Y-95509600I-237500J0D01*
G01*
G37*
%TD.AperFunction*%
%TO.P,C6,1*%
%TO.N,Net-(C6-Pad1)*%
%TA.AperFunction,SMDPad,CuDef*%
G36*
G01*
X124240300Y-97259600D02*
X123765300Y-97259600D01*
G75*
G02*
X123527800Y-97022100I0J237500D01*
G01*
X123527800Y-96447100D01*
G75*
G02*
X123765300Y-96209600I237500J0D01*
G01*
X124240300Y-96209600D01*
G75*
G02*
X124477800Y-96447100I0J-237500D01*
G01*
X124477800Y-97022100D01*
G75*
G02*
X124240300Y-97259600I-237500J0D01*
G01*
G37*
%TD.AperFunction*%
%TD*%
%TO.P,C5,2*%
%TO.N,-9V*%
%TA.AperFunction,SMDPad,CuDef*%
G36*
G01*
X119363500Y-98089000D02*
X118888500Y-98089000D01*
G75*
G02*
X118651000Y-97851500I0J237500D01*
G01*
X118651000Y-97276500D01*
G75*
G02*
X118888500Y-97039000I237500J0D01*
G01*
X119363500Y-97039000D01*
G75*
G02*
X119601000Y-97276500I0J-237500D01*
G01*
X119601000Y-97851500D01*
G75*
G02*
X119363500Y-98089000I-237500J0D01*
G01*
G37*
%TD.AperFunction*%
%TO.P,C5,1*%
%TO.N,+9V*%
%TA.AperFunction,SMDPad,CuDef*%
G36*
G01*
X119363500Y-99839000D02*
X118888500Y-99839000D01*
G75*
G02*
X118651000Y-99601500I0J237500D01*
G01*
X118651000Y-99026500D01*
G75*
G02*
X118888500Y-98789000I237500J0D01*
G01*
X119363500Y-98789000D01*
G75*
G02*
X119601000Y-99026500I0J-237500D01*
G01*
X119601000Y-99601500D01*
G75*
G02*
X119363500Y-99839000I-237500J0D01*
G01*
G37*
%TD.AperFunction*%
%TD*%
%TO.P,C4,2*%
%TO.N,GND*%
%TA.AperFunction,SMDPad,CuDef*%
G36*
G01*
X117788700Y-96297000D02*
X117313700Y-96297000D01*
G75*
G02*
X117076200Y-96059500I0J237500D01*
G01*
X117076200Y-95484500D01*
G75*
G02*
X117313700Y-95247000I237500J0D01*
G01*
X117788700Y-95247000D01*
G75*
G02*
X118026200Y-95484500I0J-237500D01*
G01*
X118026200Y-96059500D01*
G75*
G02*
X117788700Y-96297000I-237500J0D01*
G01*
G37*
%TD.AperFunction*%
%TO.P,C4,1*%
%TO.N,-9V*%
%TA.AperFunction,SMDPad,CuDef*%
G36*
G01*
X117788700Y-98047000D02*
X117313700Y-98047000D01*
G75*
G02*
X117076200Y-97809500I0J237500D01*
G01*
X117076200Y-97234500D01*
G75*
G02*
X117313700Y-96997000I237500J0D01*
G01*
X117788700Y-96997000D01*
G75*
G02*
X118026200Y-97234500I0J-237500D01*
G01*
X118026200Y-97809500D01*
G75*
G02*
X117788700Y-98047000I-237500J0D01*
G01*
G37*
%TD.AperFunction*%
%TD*%
%TO.P,C3,2*%
%TO.N,GND*%
%TA.AperFunction,SMDPad,CuDef*%
G36*
G01*
X115713500Y-100539000D02*
X116188500Y-100539000D01*
G75*
G02*
X116426000Y-100776500I0J-237500D01*
G01*
X116426000Y-101351500D01*
G75*
G02*
X116188500Y-101589000I-237500J0D01*
G01*
X115713500Y-101589000D01*
G75*
G02*
X115476000Y-101351500I0J237500D01*
G01*
X115476000Y-100776500D01*
G75*
G02*
X115713500Y-100539000I237500J0D01*
G01*
G37*
%TD.AperFunction*%
%TO.P,C3,1*%
%TO.N,+9V*%
%TA.AperFunction,SMDPad,CuDef*%
G36*
G01*
X115713500Y-98789000D02*
X116188500Y-98789000D01*
G75*
G02*
X116426000Y-99026500I0J-237500D01*
G01*
X116426000Y-99601500D01*
G75*
G02*
X116188500Y-99839000I-237500J0D01*
G01*
X115713500Y-99839000D01*
G75*
G02*
X115476000Y-99601500I0J237500D01*
G01*
X115476000Y-99026500D01*
G75*
G02*
X115713500Y-98789000I237500J0D01*
G01*
G37*
%TD.AperFunction*%
%TD*%
%TO.P,C2,2*%
%TO.N,-9V*%
%TA.AperFunction,SMDPad,CuDef*%
G36*
G01*
X115713500Y-96997000D02*
X116188500Y-96997000D01*
G75*
G02*
X116426000Y-97234500I0J-237500D01*
G01*
X116426000Y-97809500D01*
G75*
G02*
X116188500Y-98047000I-237500J0D01*
G01*
X115713500Y-98047000D01*
G75*
G02*
X115476000Y-97809500I0J237500D01*
G01*
X115476000Y-97234500D01*
G75*
G02*
X115713500Y-96997000I237500J0D01*
G01*
G37*
%TD.AperFunction*%
%TO.P,C2,1*%
%TO.N,GND*%
%TA.AperFunction,SMDPad,CuDef*%
G36*
G01*
X115713500Y-95247000D02*
X116188500Y-95247000D01*
G75*
G02*
X116426000Y-95484500I0J-237500D01*
G01*
X116426000Y-96059500D01*
G75*
G02*
X116188500Y-96297000I-237500J0D01*
G01*
X115713500Y-96297000D01*
G75*
G02*
X115476000Y-96059500I0J237500D01*
G01*
X115476000Y-95484500D01*
G75*
G02*
X115713500Y-95247000I237500J0D01*
G01*
G37*
%TD.AperFunction*%
%TD*%
%TO.P,C1,2*%
%TO.N,+9V*%
%TA.AperFunction,SMDPad,CuDef*%
G36*
G01*
X117776000Y-99839000D02*
X117301000Y-99839000D01*
G75*
G02*
X117063500Y-99601500I0J237500D01*
G01*
X117063500Y-99026500D01*
G75*
G02*
X117301000Y-98789000I237500J0D01*
G01*
X117776000Y-98789000D01*
G75*
G02*
X118013500Y-99026500I0J-237500D01*
G01*
X118013500Y-99601500D01*
G75*
G02*
X117776000Y-99839000I-237500J0D01*
G01*
G37*
%TD.AperFunction*%
%TO.P,C1,1*%
%TO.N,GND*%
%TA.AperFunction,SMDPad,CuDef*%
G36*
G01*
X117776000Y-101589000D02*
X117301000Y-101589000D01*
G75*
G02*
X117063500Y-101351500I0J237500D01*
G01*
X117063500Y-100776500D01*
G75*
G02*
X117301000Y-100539000I237500J0D01*
G01*
X117776000Y-100539000D01*
G75*
G02*
X118013500Y-100776500I0J-237500D01*
G01*
X118013500Y-101351500D01*
G75*
G02*
X117776000Y-101589000I-237500J0D01*
G01*
G37*
%TD.AperFunction*%
%TD*%
D13*
%TO.N,*%
X107696000Y-83566000D03*
X107696000Y-109982000D03*
X128270000Y-109982000D03*
X128270000Y-83566000D03*
%TD*%
D14*
%TO.N,+9V*%
X119989600Y-99314000D02*
X120243600Y-99060000D01*
X119126000Y-99314000D02*
X119989600Y-99314000D01*
X120243600Y-99060000D02*
X121539000Y-99060000D01*
X119126000Y-99314000D02*
X115951000Y-99314000D01*
X112776000Y-99314000D02*
X108966000Y-103124000D01*
X115951000Y-99314000D02*
X112776000Y-99314000D01*
%TO.N,-9V*%
X115993000Y-97564000D02*
X115951000Y-97522000D01*
X119126000Y-97564000D02*
X115993000Y-97564000D01*
X119126000Y-97564000D02*
X120017600Y-97564000D01*
X120017600Y-97564000D02*
X120243600Y-97790000D01*
X121539000Y-97790000D02*
X120243600Y-97790000D01*
X113524000Y-97522000D02*
X108966000Y-92964000D01*
X115951000Y-97522000D02*
X113524000Y-97522000D01*
%TO.N,Net-(C6-Pad1)*%
X124002800Y-98580000D02*
X124002800Y-96734600D01*
%TO.N,Net-(J3-Pad1)*%
X121539000Y-100330000D02*
X124002800Y-100330000D01*
X116332000Y-104829894D02*
X116332000Y-108775500D01*
X120831894Y-100330000D02*
X116332000Y-104829894D01*
X121539000Y-100330000D02*
X120831894Y-100330000D01*
%TD*%
D15*
%TO.N,GND*%
G36*
X131680001Y-112756353D02*
G01*
X131680000Y-113392000D01*
X104286000Y-113392000D01*
X104286000Y-109698837D01*
X104821000Y-109698837D01*
X104821000Y-110265163D01*
X104931485Y-110820607D01*
X105148208Y-111343823D01*
X105462842Y-111814706D01*
X105863294Y-112215158D01*
X106334177Y-112529792D01*
X106857393Y-112746515D01*
X107412837Y-112857000D01*
X107979163Y-112857000D01*
X108534607Y-112746515D01*
X109057823Y-112529792D01*
X109528706Y-112215158D01*
X109929158Y-111814706D01*
X110243792Y-111343823D01*
X110460515Y-110820607D01*
X110571000Y-110265163D01*
X110571000Y-109698837D01*
X110460515Y-109143393D01*
X110243792Y-108620177D01*
X109929158Y-108149294D01*
X109528706Y-107748842D01*
X109057823Y-107434208D01*
X108534607Y-107217485D01*
X107979163Y-107107000D01*
X107412837Y-107107000D01*
X106857393Y-107217485D01*
X106334177Y-107434208D01*
X105863294Y-107748842D01*
X105462842Y-108149294D01*
X105148208Y-108620177D01*
X104931485Y-109143393D01*
X104821000Y-109698837D01*
X104286000Y-109698837D01*
X104286000Y-99535907D01*
X107656527Y-99535907D01*
X107812835Y-99850663D01*
X108187455Y-100040920D01*
X108591994Y-100154437D01*
X109010906Y-100186850D01*
X109428093Y-100136914D01*
X109827521Y-100006550D01*
X110119165Y-99850663D01*
X110275473Y-99535907D01*
X108966000Y-98226434D01*
X107656527Y-99535907D01*
X104286000Y-99535907D01*
X104286000Y-98088906D01*
X106823150Y-98088906D01*
X106873086Y-98506093D01*
X107003450Y-98905521D01*
X107159337Y-99197165D01*
X107474093Y-99353473D01*
X108783566Y-98044000D01*
X109148434Y-98044000D01*
X110457907Y-99353473D01*
X110772663Y-99197165D01*
X110962920Y-98822545D01*
X111076437Y-98418006D01*
X111108850Y-97999094D01*
X111058914Y-97581907D01*
X110928550Y-97182479D01*
X110772663Y-96890835D01*
X110457907Y-96734527D01*
X109148434Y-98044000D01*
X108783566Y-98044000D01*
X107474093Y-96734527D01*
X107159337Y-96890835D01*
X106969080Y-97265455D01*
X106855563Y-97669994D01*
X106823150Y-98088906D01*
X104286000Y-98088906D01*
X104286000Y-96552093D01*
X107656527Y-96552093D01*
X108966000Y-97861566D01*
X110275473Y-96552093D01*
X110119165Y-96237337D01*
X109744545Y-96047080D01*
X109340006Y-95933563D01*
X108921094Y-95901150D01*
X108503907Y-95951086D01*
X108104479Y-96081450D01*
X107812835Y-96237337D01*
X107656527Y-96552093D01*
X104286000Y-96552093D01*
X104286000Y-91464000D01*
X107089186Y-91464000D01*
X107089186Y-94464000D01*
X107096426Y-94537513D01*
X107117869Y-94608200D01*
X107152691Y-94673347D01*
X107199552Y-94730448D01*
X107256653Y-94777309D01*
X107321800Y-94812131D01*
X107392487Y-94833574D01*
X107466000Y-94840814D01*
X109782154Y-94840814D01*
X112967630Y-98026291D01*
X112991105Y-98054895D01*
X113019708Y-98078369D01*
X113019715Y-98078376D01*
X113070893Y-98120376D01*
X113105307Y-98148619D01*
X113235599Y-98218261D01*
X113376974Y-98261147D01*
X113487165Y-98272000D01*
X113487174Y-98272000D01*
X113523999Y-98275627D01*
X113560824Y-98272000D01*
X115313371Y-98272000D01*
X115372205Y-98320283D01*
X115478412Y-98377052D01*
X115593653Y-98412010D01*
X115654470Y-98418000D01*
X115593653Y-98423990D01*
X115478412Y-98458948D01*
X115372205Y-98515717D01*
X115313371Y-98564000D01*
X112812828Y-98564000D01*
X112776000Y-98560373D01*
X112739172Y-98564000D01*
X112739165Y-98564000D01*
X112628974Y-98574853D01*
X112487599Y-98617739D01*
X112357307Y-98687381D01*
X112243105Y-98781105D01*
X112219626Y-98809714D01*
X109651063Y-101378278D01*
X109512917Y-101321056D01*
X109150671Y-101249000D01*
X108781329Y-101249000D01*
X108419083Y-101321056D01*
X108077855Y-101462397D01*
X107770757Y-101667593D01*
X107509593Y-101928757D01*
X107304397Y-102235855D01*
X107163056Y-102577083D01*
X107091000Y-102939329D01*
X107091000Y-103308671D01*
X107163056Y-103670917D01*
X107304397Y-104012145D01*
X107509593Y-104319243D01*
X107770757Y-104580407D01*
X108077855Y-104785603D01*
X108419083Y-104926944D01*
X108781329Y-104999000D01*
X109150671Y-104999000D01*
X109512917Y-104926944D01*
X109854145Y-104785603D01*
X110161243Y-104580407D01*
X110422407Y-104319243D01*
X110627603Y-104012145D01*
X110768944Y-103670917D01*
X110841000Y-103308671D01*
X110841000Y-102939329D01*
X110768944Y-102577083D01*
X110711722Y-102438937D01*
X111561659Y-101589000D01*
X114839937Y-101589000D01*
X114852159Y-101713090D01*
X114888354Y-101832411D01*
X114947133Y-101942378D01*
X115026236Y-102038764D01*
X115122622Y-102117867D01*
X115232589Y-102176646D01*
X115351910Y-102212841D01*
X115476000Y-102225063D01*
X115663750Y-102222000D01*
X115822000Y-102063750D01*
X115822000Y-101193000D01*
X116080000Y-101193000D01*
X116080000Y-102063750D01*
X116238250Y-102222000D01*
X116426000Y-102225063D01*
X116550090Y-102212841D01*
X116669411Y-102176646D01*
X116744750Y-102136376D01*
X116820089Y-102176646D01*
X116939410Y-102212841D01*
X117063500Y-102225063D01*
X117251250Y-102222000D01*
X117409500Y-102063750D01*
X117409500Y-101193000D01*
X116080000Y-101193000D01*
X115822000Y-101193000D01*
X115001250Y-101193000D01*
X114843000Y-101351250D01*
X114839937Y-101589000D01*
X111561659Y-101589000D01*
X113086660Y-100064000D01*
X115056986Y-100064000D01*
X115026236Y-100089236D01*
X114947133Y-100185622D01*
X114888354Y-100295589D01*
X114852159Y-100414910D01*
X114839937Y-100539000D01*
X114843000Y-100776750D01*
X115001250Y-100935000D01*
X115822000Y-100935000D01*
X115822000Y-100915000D01*
X116080000Y-100915000D01*
X116080000Y-100935000D01*
X117409500Y-100935000D01*
X117409500Y-100915000D01*
X117667500Y-100915000D01*
X117667500Y-100935000D01*
X118488250Y-100935000D01*
X118646500Y-100776750D01*
X118649563Y-100539000D01*
X118637341Y-100414910D01*
X118601146Y-100295589D01*
X118542367Y-100185622D01*
X118463264Y-100089236D01*
X118432514Y-100064000D01*
X118488371Y-100064000D01*
X118547205Y-100112283D01*
X118653412Y-100169052D01*
X118768653Y-100204010D01*
X118888500Y-100215814D01*
X119363500Y-100215814D01*
X119483347Y-100204010D01*
X119598588Y-100169052D01*
X119704795Y-100112283D01*
X119763629Y-100064000D01*
X119952773Y-100064000D01*
X119989600Y-100067627D01*
X120026427Y-100064000D01*
X120026435Y-100064000D01*
X120038414Y-100062820D01*
X118647816Y-101453418D01*
X118646500Y-101351250D01*
X118488250Y-101193000D01*
X117667500Y-101193000D01*
X117667500Y-102063750D01*
X117825750Y-102222000D01*
X117878376Y-102222859D01*
X115827720Y-104273515D01*
X115799105Y-104296999D01*
X115705381Y-104411202D01*
X115635739Y-104541494D01*
X115592853Y-104682869D01*
X115582000Y-104793060D01*
X115582000Y-104793067D01*
X115578373Y-104829894D01*
X115582000Y-104866722D01*
X115582001Y-106898686D01*
X114832000Y-106898686D01*
X114758487Y-106905926D01*
X114687800Y-106927369D01*
X114622653Y-106962191D01*
X114565552Y-107009052D01*
X114518691Y-107066153D01*
X114483869Y-107131300D01*
X114462426Y-107201987D01*
X114455186Y-107275500D01*
X114455186Y-110275500D01*
X114462426Y-110349013D01*
X114483869Y-110419700D01*
X114518691Y-110484847D01*
X114565552Y-110541948D01*
X114622653Y-110588809D01*
X114687800Y-110623631D01*
X114758487Y-110645074D01*
X114832000Y-110652314D01*
X117832000Y-110652314D01*
X117905513Y-110645074D01*
X117976200Y-110623631D01*
X118041347Y-110588809D01*
X118098448Y-110541948D01*
X118145309Y-110484847D01*
X118180131Y-110419700D01*
X118201574Y-110349013D01*
X118208814Y-110275500D01*
X118208814Y-110267407D01*
X120102527Y-110267407D01*
X120258835Y-110582163D01*
X120633455Y-110772420D01*
X121037994Y-110885937D01*
X121456906Y-110918350D01*
X121874093Y-110868414D01*
X122273521Y-110738050D01*
X122565165Y-110582163D01*
X122721473Y-110267407D01*
X121412000Y-108957934D01*
X120102527Y-110267407D01*
X118208814Y-110267407D01*
X118208814Y-108820406D01*
X119269150Y-108820406D01*
X119319086Y-109237593D01*
X119449450Y-109637021D01*
X119605337Y-109928665D01*
X119920093Y-110084973D01*
X121229566Y-108775500D01*
X121594434Y-108775500D01*
X122903907Y-110084973D01*
X123218663Y-109928665D01*
X123335384Y-109698837D01*
X125395000Y-109698837D01*
X125395000Y-110265163D01*
X125505485Y-110820607D01*
X125722208Y-111343823D01*
X126036842Y-111814706D01*
X126437294Y-112215158D01*
X126908177Y-112529792D01*
X127431393Y-112746515D01*
X127986837Y-112857000D01*
X128553163Y-112857000D01*
X129108607Y-112746515D01*
X129631823Y-112529792D01*
X130102706Y-112215158D01*
X130503158Y-111814706D01*
X130817792Y-111343823D01*
X131034515Y-110820607D01*
X131145000Y-110265163D01*
X131145000Y-109698837D01*
X131034515Y-109143393D01*
X130817792Y-108620177D01*
X130503158Y-108149294D01*
X130102706Y-107748842D01*
X129631823Y-107434208D01*
X129108607Y-107217485D01*
X128553163Y-107107000D01*
X127986837Y-107107000D01*
X127431393Y-107217485D01*
X126908177Y-107434208D01*
X126437294Y-107748842D01*
X126036842Y-108149294D01*
X125722208Y-108620177D01*
X125505485Y-109143393D01*
X125395000Y-109698837D01*
X123335384Y-109698837D01*
X123408920Y-109554045D01*
X123522437Y-109149506D01*
X123554850Y-108730594D01*
X123504914Y-108313407D01*
X123374550Y-107913979D01*
X123218663Y-107622335D01*
X122903907Y-107466027D01*
X121594434Y-108775500D01*
X121229566Y-108775500D01*
X119920093Y-107466027D01*
X119605337Y-107622335D01*
X119415080Y-107996955D01*
X119301563Y-108401494D01*
X119269150Y-108820406D01*
X118208814Y-108820406D01*
X118208814Y-107283593D01*
X120102527Y-107283593D01*
X121412000Y-108593066D01*
X122721473Y-107283593D01*
X122565165Y-106968837D01*
X122190545Y-106778580D01*
X121786006Y-106665063D01*
X121367094Y-106632650D01*
X120949907Y-106682586D01*
X120550479Y-106812950D01*
X120258835Y-106968837D01*
X120102527Y-107283593D01*
X118208814Y-107283593D01*
X118208814Y-107275500D01*
X118201574Y-107201987D01*
X118180131Y-107131300D01*
X118145309Y-107066153D01*
X118098448Y-107009052D01*
X118041347Y-106962191D01*
X117976200Y-106927369D01*
X117905513Y-106905926D01*
X117832000Y-106898686D01*
X117082000Y-106898686D01*
X117082000Y-105140553D01*
X120664000Y-101558554D01*
X120664000Y-101686180D01*
X120697626Y-101855228D01*
X120763585Y-102014468D01*
X120859343Y-102157780D01*
X120981220Y-102279657D01*
X121124532Y-102375415D01*
X121283772Y-102441374D01*
X121452820Y-102475000D01*
X121625180Y-102475000D01*
X121794228Y-102441374D01*
X121953468Y-102375415D01*
X122096780Y-102279657D01*
X122218657Y-102157780D01*
X122314415Y-102014468D01*
X122380374Y-101855228D01*
X122414000Y-101686180D01*
X122414000Y-101513820D01*
X122380374Y-101344772D01*
X122314415Y-101185532D01*
X122243901Y-101080000D01*
X123365171Y-101080000D01*
X123424005Y-101128283D01*
X123530212Y-101185052D01*
X123645453Y-101220010D01*
X123765300Y-101231814D01*
X124240300Y-101231814D01*
X124360147Y-101220010D01*
X124475388Y-101185052D01*
X124581595Y-101128283D01*
X124674686Y-101051886D01*
X124751083Y-100958795D01*
X124807852Y-100852588D01*
X124842810Y-100737347D01*
X124854614Y-100617500D01*
X124854614Y-100042500D01*
X124842810Y-99922653D01*
X124807852Y-99807412D01*
X124751083Y-99701205D01*
X124674686Y-99608114D01*
X124581595Y-99531717D01*
X124475388Y-99474948D01*
X124409628Y-99455000D01*
X124475388Y-99435052D01*
X124581595Y-99378283D01*
X124674686Y-99301886D01*
X124751083Y-99208795D01*
X124807852Y-99102588D01*
X124842810Y-98987347D01*
X124854614Y-98867500D01*
X124854614Y-98292500D01*
X124842810Y-98172653D01*
X124807852Y-98057412D01*
X124752800Y-97954417D01*
X124752800Y-97360183D01*
X124807852Y-97257188D01*
X124842810Y-97141947D01*
X124854614Y-97022100D01*
X124854614Y-96447100D01*
X124842810Y-96327253D01*
X124807852Y-96212012D01*
X124751083Y-96105805D01*
X124737092Y-96088757D01*
X124831178Y-96038467D01*
X124927564Y-95959364D01*
X125006667Y-95862978D01*
X125065446Y-95753011D01*
X125101641Y-95633690D01*
X125113863Y-95509600D01*
X125110800Y-95271850D01*
X124952550Y-95113600D01*
X124131800Y-95113600D01*
X124131800Y-95133600D01*
X123873800Y-95133600D01*
X123873800Y-95113600D01*
X123053050Y-95113600D01*
X122894800Y-95271850D01*
X122891737Y-95509600D01*
X122903959Y-95633690D01*
X122940154Y-95753011D01*
X122998933Y-95862978D01*
X123078036Y-95959364D01*
X123174422Y-96038467D01*
X123268508Y-96088757D01*
X123254517Y-96105805D01*
X123197748Y-96212012D01*
X123162790Y-96327253D01*
X123150986Y-96447100D01*
X123150986Y-97022100D01*
X123162790Y-97141947D01*
X123197748Y-97257188D01*
X123252801Y-97360184D01*
X123252800Y-97954417D01*
X123197748Y-98057412D01*
X123162790Y-98172653D01*
X123150986Y-98292500D01*
X123150986Y-98867500D01*
X123162790Y-98987347D01*
X123197748Y-99102588D01*
X123254517Y-99208795D01*
X123330914Y-99301886D01*
X123424005Y-99378283D01*
X123530212Y-99435052D01*
X123595972Y-99455000D01*
X123530212Y-99474948D01*
X123424005Y-99531717D01*
X123365171Y-99580000D01*
X122243901Y-99580000D01*
X122314415Y-99474468D01*
X122380374Y-99315228D01*
X122414000Y-99146180D01*
X122414000Y-98973820D01*
X122380374Y-98804772D01*
X122314415Y-98645532D01*
X122218657Y-98502220D01*
X122141437Y-98425000D01*
X122218657Y-98347780D01*
X122314415Y-98204468D01*
X122380374Y-98045228D01*
X122414000Y-97876180D01*
X122414000Y-97703820D01*
X122380374Y-97534772D01*
X122314415Y-97375532D01*
X122218657Y-97232220D01*
X122141437Y-97155000D01*
X122218657Y-97077780D01*
X122314415Y-96934468D01*
X122380374Y-96775228D01*
X122414000Y-96606180D01*
X122414000Y-96433820D01*
X122380374Y-96264772D01*
X122314415Y-96105532D01*
X122218657Y-95962220D01*
X122141437Y-95885000D01*
X122218657Y-95807780D01*
X122314415Y-95664468D01*
X122380374Y-95505228D01*
X122414000Y-95336180D01*
X122414000Y-95163820D01*
X122380374Y-94994772D01*
X122314415Y-94835532D01*
X122218657Y-94692220D01*
X122141437Y-94615000D01*
X122218657Y-94537780D01*
X122270895Y-94459600D01*
X122891737Y-94459600D01*
X122894800Y-94697350D01*
X123053050Y-94855600D01*
X123873800Y-94855600D01*
X123873800Y-93984850D01*
X124131800Y-93984850D01*
X124131800Y-94855600D01*
X124952550Y-94855600D01*
X125110800Y-94697350D01*
X125113863Y-94459600D01*
X125101641Y-94335510D01*
X125065446Y-94216189D01*
X125006667Y-94106222D01*
X124927564Y-94009836D01*
X124831178Y-93930733D01*
X124721211Y-93871954D01*
X124601890Y-93835759D01*
X124477800Y-93823537D01*
X124290050Y-93826600D01*
X124131800Y-93984850D01*
X123873800Y-93984850D01*
X123715550Y-93826600D01*
X123527800Y-93823537D01*
X123403710Y-93835759D01*
X123284389Y-93871954D01*
X123174422Y-93930733D01*
X123078036Y-94009836D01*
X122998933Y-94106222D01*
X122940154Y-94216189D01*
X122903959Y-94335510D01*
X122891737Y-94459600D01*
X122270895Y-94459600D01*
X122314415Y-94394468D01*
X122380374Y-94235228D01*
X122414000Y-94066180D01*
X122414000Y-93893820D01*
X122380374Y-93724772D01*
X122314415Y-93565532D01*
X122218657Y-93422220D01*
X122096780Y-93300343D01*
X121953468Y-93204585D01*
X121794228Y-93138626D01*
X121625180Y-93105000D01*
X121452820Y-93105000D01*
X121283772Y-93138626D01*
X121124532Y-93204585D01*
X120981220Y-93300343D01*
X120859343Y-93422220D01*
X120763585Y-93565532D01*
X120697626Y-93724772D01*
X120664000Y-93893820D01*
X120664000Y-94066180D01*
X120697626Y-94235228D01*
X120763585Y-94394468D01*
X120859343Y-94537780D01*
X120936563Y-94615000D01*
X120859343Y-94692220D01*
X120763585Y-94835532D01*
X120697626Y-94994772D01*
X120664000Y-95163820D01*
X120664000Y-95336180D01*
X120697626Y-95505228D01*
X120763585Y-95664468D01*
X120859343Y-95807780D01*
X120936563Y-95885000D01*
X120859343Y-95962220D01*
X120763585Y-96105532D01*
X120697626Y-96264772D01*
X120664000Y-96433820D01*
X120664000Y-96606180D01*
X120697626Y-96775228D01*
X120763585Y-96934468D01*
X120834099Y-97040000D01*
X120557795Y-97040000D01*
X120550495Y-97031105D01*
X120436293Y-96937381D01*
X120306001Y-96867739D01*
X120164626Y-96824853D01*
X120054435Y-96814000D01*
X120054427Y-96814000D01*
X120017600Y-96810373D01*
X119980773Y-96814000D01*
X119763629Y-96814000D01*
X119704795Y-96765717D01*
X119598588Y-96708948D01*
X119483347Y-96673990D01*
X119363500Y-96662186D01*
X118888500Y-96662186D01*
X118768653Y-96673990D01*
X118653412Y-96708948D01*
X118547205Y-96765717D01*
X118488371Y-96814000D01*
X118394038Y-96814000D01*
X118475964Y-96746764D01*
X118555067Y-96650378D01*
X118613846Y-96540411D01*
X118650041Y-96421090D01*
X118662263Y-96297000D01*
X118659200Y-96059250D01*
X118500950Y-95901000D01*
X117680200Y-95901000D01*
X117680200Y-95921000D01*
X117422200Y-95921000D01*
X117422200Y-95901000D01*
X116080000Y-95901000D01*
X116080000Y-95921000D01*
X115822000Y-95921000D01*
X115822000Y-95901000D01*
X115001250Y-95901000D01*
X114843000Y-96059250D01*
X114839937Y-96297000D01*
X114852159Y-96421090D01*
X114888354Y-96540411D01*
X114947133Y-96650378D01*
X115026236Y-96746764D01*
X115056986Y-96772000D01*
X113834661Y-96772000D01*
X112309661Y-95247000D01*
X114839937Y-95247000D01*
X114843000Y-95484750D01*
X115001250Y-95643000D01*
X115822000Y-95643000D01*
X115822000Y-94772250D01*
X116080000Y-94772250D01*
X116080000Y-95643000D01*
X117422200Y-95643000D01*
X117422200Y-94772250D01*
X117680200Y-94772250D01*
X117680200Y-95643000D01*
X118500950Y-95643000D01*
X118659200Y-95484750D01*
X118662263Y-95247000D01*
X118650041Y-95122910D01*
X118613846Y-95003589D01*
X118555067Y-94893622D01*
X118475964Y-94797236D01*
X118379578Y-94718133D01*
X118269611Y-94659354D01*
X118150290Y-94623159D01*
X118026200Y-94610937D01*
X117838450Y-94614000D01*
X117680200Y-94772250D01*
X117422200Y-94772250D01*
X117263950Y-94614000D01*
X117076200Y-94610937D01*
X116952110Y-94623159D01*
X116832789Y-94659354D01*
X116751100Y-94703018D01*
X116669411Y-94659354D01*
X116550090Y-94623159D01*
X116426000Y-94610937D01*
X116238250Y-94614000D01*
X116080000Y-94772250D01*
X115822000Y-94772250D01*
X115663750Y-94614000D01*
X115476000Y-94610937D01*
X115351910Y-94623159D01*
X115232589Y-94659354D01*
X115122622Y-94718133D01*
X115026236Y-94797236D01*
X114947133Y-94893622D01*
X114888354Y-95003589D01*
X114852159Y-95122910D01*
X114839937Y-95247000D01*
X112309661Y-95247000D01*
X110842814Y-93780154D01*
X110842814Y-91464000D01*
X110835574Y-91390487D01*
X110814131Y-91319800D01*
X110779309Y-91254653D01*
X110732448Y-91197552D01*
X110675347Y-91150691D01*
X110610200Y-91115869D01*
X110539513Y-91094426D01*
X110466000Y-91087186D01*
X107466000Y-91087186D01*
X107392487Y-91094426D01*
X107321800Y-91115869D01*
X107256653Y-91150691D01*
X107199552Y-91197552D01*
X107152691Y-91254653D01*
X107117869Y-91319800D01*
X107096426Y-91390487D01*
X107089186Y-91464000D01*
X104286000Y-91464000D01*
X104286000Y-83282837D01*
X104821000Y-83282837D01*
X104821000Y-83849163D01*
X104931485Y-84404607D01*
X105148208Y-84927823D01*
X105462842Y-85398706D01*
X105863294Y-85799158D01*
X106334177Y-86113792D01*
X106857393Y-86330515D01*
X107412837Y-86441000D01*
X107979163Y-86441000D01*
X108534607Y-86330515D01*
X109057823Y-86113792D01*
X109528706Y-85799158D01*
X109929158Y-85398706D01*
X110243792Y-84927823D01*
X110358319Y-84651329D01*
X114457000Y-84651329D01*
X114457000Y-85020671D01*
X114529056Y-85382917D01*
X114670397Y-85724145D01*
X114875593Y-86031243D01*
X115136757Y-86292407D01*
X115443855Y-86497603D01*
X115785083Y-86638944D01*
X116147329Y-86711000D01*
X116516671Y-86711000D01*
X116878917Y-86638944D01*
X117220145Y-86497603D01*
X117462001Y-86336000D01*
X119275937Y-86336000D01*
X119288159Y-86460090D01*
X119324354Y-86579411D01*
X119383133Y-86689378D01*
X119462236Y-86785764D01*
X119558622Y-86864867D01*
X119668589Y-86923646D01*
X119787910Y-86959841D01*
X119912000Y-86972063D01*
X121124750Y-86969000D01*
X121283000Y-86810750D01*
X121283000Y-84965000D01*
X121541000Y-84965000D01*
X121541000Y-86810750D01*
X121699250Y-86969000D01*
X122912000Y-86972063D01*
X123036090Y-86959841D01*
X123155411Y-86923646D01*
X123265378Y-86864867D01*
X123361764Y-86785764D01*
X123440867Y-86689378D01*
X123499646Y-86579411D01*
X123535841Y-86460090D01*
X123548063Y-86336000D01*
X123545000Y-85123250D01*
X123386750Y-84965000D01*
X121541000Y-84965000D01*
X121283000Y-84965000D01*
X119437250Y-84965000D01*
X119279000Y-85123250D01*
X119275937Y-86336000D01*
X117462001Y-86336000D01*
X117527243Y-86292407D01*
X117788407Y-86031243D01*
X117993603Y-85724145D01*
X118134944Y-85382917D01*
X118207000Y-85020671D01*
X118207000Y-84651329D01*
X118134944Y-84289083D01*
X117993603Y-83947855D01*
X117788407Y-83640757D01*
X117527243Y-83379593D01*
X117462002Y-83336000D01*
X119275937Y-83336000D01*
X119279000Y-84548750D01*
X119437250Y-84707000D01*
X121283000Y-84707000D01*
X121283000Y-82861250D01*
X121541000Y-82861250D01*
X121541000Y-84707000D01*
X123386750Y-84707000D01*
X123545000Y-84548750D01*
X123548063Y-83336000D01*
X123542827Y-83282837D01*
X125395000Y-83282837D01*
X125395000Y-83849163D01*
X125505485Y-84404607D01*
X125722208Y-84927823D01*
X126036842Y-85398706D01*
X126437294Y-85799158D01*
X126908177Y-86113792D01*
X127431393Y-86330515D01*
X127986837Y-86441000D01*
X128553163Y-86441000D01*
X129108607Y-86330515D01*
X129631823Y-86113792D01*
X130102706Y-85799158D01*
X130503158Y-85398706D01*
X130817792Y-84927823D01*
X131034515Y-84404607D01*
X131145000Y-83849163D01*
X131145000Y-83282837D01*
X131034515Y-82727393D01*
X130817792Y-82204177D01*
X130503158Y-81733294D01*
X130102706Y-81332842D01*
X129631823Y-81018208D01*
X129108607Y-80801485D01*
X128553163Y-80691000D01*
X127986837Y-80691000D01*
X127431393Y-80801485D01*
X126908177Y-81018208D01*
X126437294Y-81332842D01*
X126036842Y-81733294D01*
X125722208Y-82204177D01*
X125505485Y-82727393D01*
X125395000Y-83282837D01*
X123542827Y-83282837D01*
X123535841Y-83211910D01*
X123499646Y-83092589D01*
X123440867Y-82982622D01*
X123361764Y-82886236D01*
X123265378Y-82807133D01*
X123155411Y-82748354D01*
X123036090Y-82712159D01*
X122912000Y-82699937D01*
X121699250Y-82703000D01*
X121541000Y-82861250D01*
X121283000Y-82861250D01*
X121124750Y-82703000D01*
X119912000Y-82699937D01*
X119787910Y-82712159D01*
X119668589Y-82748354D01*
X119558622Y-82807133D01*
X119462236Y-82886236D01*
X119383133Y-82982622D01*
X119324354Y-83092589D01*
X119288159Y-83211910D01*
X119275937Y-83336000D01*
X117462002Y-83336000D01*
X117220145Y-83174397D01*
X116878917Y-83033056D01*
X116516671Y-82961000D01*
X116147329Y-82961000D01*
X115785083Y-83033056D01*
X115443855Y-83174397D01*
X115136757Y-83379593D01*
X114875593Y-83640757D01*
X114670397Y-83947855D01*
X114529056Y-84289083D01*
X114457000Y-84651329D01*
X110358319Y-84651329D01*
X110460515Y-84404607D01*
X110571000Y-83849163D01*
X110571000Y-83282837D01*
X110460515Y-82727393D01*
X110243792Y-82204177D01*
X109929158Y-81733294D01*
X109528706Y-81332842D01*
X109057823Y-81018208D01*
X108534607Y-80801485D01*
X107979163Y-80691000D01*
X107412837Y-80691000D01*
X106857393Y-80801485D01*
X106334177Y-81018208D01*
X105863294Y-81332842D01*
X105462842Y-81733294D01*
X105148208Y-82204177D01*
X104931485Y-82727393D01*
X104821000Y-83282837D01*
X104286000Y-83282837D01*
X104286000Y-80156000D01*
X131680000Y-80156000D01*
X131680001Y-112756353D01*
G37*
X131680001Y-112756353D02*
X131680000Y-113392000D01*
X104286000Y-113392000D01*
X104286000Y-109698837D01*
X104821000Y-109698837D01*
X104821000Y-110265163D01*
X104931485Y-110820607D01*
X105148208Y-111343823D01*
X105462842Y-111814706D01*
X105863294Y-112215158D01*
X106334177Y-112529792D01*
X106857393Y-112746515D01*
X107412837Y-112857000D01*
X107979163Y-112857000D01*
X108534607Y-112746515D01*
X109057823Y-112529792D01*
X109528706Y-112215158D01*
X109929158Y-111814706D01*
X110243792Y-111343823D01*
X110460515Y-110820607D01*
X110571000Y-110265163D01*
X110571000Y-109698837D01*
X110460515Y-109143393D01*
X110243792Y-108620177D01*
X109929158Y-108149294D01*
X109528706Y-107748842D01*
X109057823Y-107434208D01*
X108534607Y-107217485D01*
X107979163Y-107107000D01*
X107412837Y-107107000D01*
X106857393Y-107217485D01*
X106334177Y-107434208D01*
X105863294Y-107748842D01*
X105462842Y-108149294D01*
X105148208Y-108620177D01*
X104931485Y-109143393D01*
X104821000Y-109698837D01*
X104286000Y-109698837D01*
X104286000Y-99535907D01*
X107656527Y-99535907D01*
X107812835Y-99850663D01*
X108187455Y-100040920D01*
X108591994Y-100154437D01*
X109010906Y-100186850D01*
X109428093Y-100136914D01*
X109827521Y-100006550D01*
X110119165Y-99850663D01*
X110275473Y-99535907D01*
X108966000Y-98226434D01*
X107656527Y-99535907D01*
X104286000Y-99535907D01*
X104286000Y-98088906D01*
X106823150Y-98088906D01*
X106873086Y-98506093D01*
X107003450Y-98905521D01*
X107159337Y-99197165D01*
X107474093Y-99353473D01*
X108783566Y-98044000D01*
X109148434Y-98044000D01*
X110457907Y-99353473D01*
X110772663Y-99197165D01*
X110962920Y-98822545D01*
X111076437Y-98418006D01*
X111108850Y-97999094D01*
X111058914Y-97581907D01*
X110928550Y-97182479D01*
X110772663Y-96890835D01*
X110457907Y-96734527D01*
X109148434Y-98044000D01*
X108783566Y-98044000D01*
X107474093Y-96734527D01*
X107159337Y-96890835D01*
X106969080Y-97265455D01*
X106855563Y-97669994D01*
X106823150Y-98088906D01*
X104286000Y-98088906D01*
X104286000Y-96552093D01*
X107656527Y-96552093D01*
X108966000Y-97861566D01*
X110275473Y-96552093D01*
X110119165Y-96237337D01*
X109744545Y-96047080D01*
X109340006Y-95933563D01*
X108921094Y-95901150D01*
X108503907Y-95951086D01*
X108104479Y-96081450D01*
X107812835Y-96237337D01*
X107656527Y-96552093D01*
X104286000Y-96552093D01*
X104286000Y-91464000D01*
X107089186Y-91464000D01*
X107089186Y-94464000D01*
X107096426Y-94537513D01*
X107117869Y-94608200D01*
X107152691Y-94673347D01*
X107199552Y-94730448D01*
X107256653Y-94777309D01*
X107321800Y-94812131D01*
X107392487Y-94833574D01*
X107466000Y-94840814D01*
X109782154Y-94840814D01*
X112967630Y-98026291D01*
X112991105Y-98054895D01*
X113019708Y-98078369D01*
X113019715Y-98078376D01*
X113070893Y-98120376D01*
X113105307Y-98148619D01*
X113235599Y-98218261D01*
X113376974Y-98261147D01*
X113487165Y-98272000D01*
X113487174Y-98272000D01*
X113523999Y-98275627D01*
X113560824Y-98272000D01*
X115313371Y-98272000D01*
X115372205Y-98320283D01*
X115478412Y-98377052D01*
X115593653Y-98412010D01*
X115654470Y-98418000D01*
X115593653Y-98423990D01*
X115478412Y-98458948D01*
X115372205Y-98515717D01*
X115313371Y-98564000D01*
X112812828Y-98564000D01*
X112776000Y-98560373D01*
X112739172Y-98564000D01*
X112739165Y-98564000D01*
X112628974Y-98574853D01*
X112487599Y-98617739D01*
X112357307Y-98687381D01*
X112243105Y-98781105D01*
X112219626Y-98809714D01*
X109651063Y-101378278D01*
X109512917Y-101321056D01*
X109150671Y-101249000D01*
X108781329Y-101249000D01*
X108419083Y-101321056D01*
X108077855Y-101462397D01*
X107770757Y-101667593D01*
X107509593Y-101928757D01*
X107304397Y-102235855D01*
X107163056Y-102577083D01*
X107091000Y-102939329D01*
X107091000Y-103308671D01*
X107163056Y-103670917D01*
X107304397Y-104012145D01*
X107509593Y-104319243D01*
X107770757Y-104580407D01*
X108077855Y-104785603D01*
X108419083Y-104926944D01*
X108781329Y-104999000D01*
X109150671Y-104999000D01*
X109512917Y-104926944D01*
X109854145Y-104785603D01*
X110161243Y-104580407D01*
X110422407Y-104319243D01*
X110627603Y-104012145D01*
X110768944Y-103670917D01*
X110841000Y-103308671D01*
X110841000Y-102939329D01*
X110768944Y-102577083D01*
X110711722Y-102438937D01*
X111561659Y-101589000D01*
X114839937Y-101589000D01*
X114852159Y-101713090D01*
X114888354Y-101832411D01*
X114947133Y-101942378D01*
X115026236Y-102038764D01*
X115122622Y-102117867D01*
X115232589Y-102176646D01*
X115351910Y-102212841D01*
X115476000Y-102225063D01*
X115663750Y-102222000D01*
X115822000Y-102063750D01*
X115822000Y-101193000D01*
X116080000Y-101193000D01*
X116080000Y-102063750D01*
X116238250Y-102222000D01*
X116426000Y-102225063D01*
X116550090Y-102212841D01*
X116669411Y-102176646D01*
X116744750Y-102136376D01*
X116820089Y-102176646D01*
X116939410Y-102212841D01*
X117063500Y-102225063D01*
X117251250Y-102222000D01*
X117409500Y-102063750D01*
X117409500Y-101193000D01*
X116080000Y-101193000D01*
X115822000Y-101193000D01*
X115001250Y-101193000D01*
X114843000Y-101351250D01*
X114839937Y-101589000D01*
X111561659Y-101589000D01*
X113086660Y-100064000D01*
X115056986Y-100064000D01*
X115026236Y-100089236D01*
X114947133Y-100185622D01*
X114888354Y-100295589D01*
X114852159Y-100414910D01*
X114839937Y-100539000D01*
X114843000Y-100776750D01*
X115001250Y-100935000D01*
X115822000Y-100935000D01*
X115822000Y-100915000D01*
X116080000Y-100915000D01*
X116080000Y-100935000D01*
X117409500Y-100935000D01*
X117409500Y-100915000D01*
X117667500Y-100915000D01*
X117667500Y-100935000D01*
X118488250Y-100935000D01*
X118646500Y-100776750D01*
X118649563Y-100539000D01*
X118637341Y-100414910D01*
X118601146Y-100295589D01*
X118542367Y-100185622D01*
X118463264Y-100089236D01*
X118432514Y-100064000D01*
X118488371Y-100064000D01*
X118547205Y-100112283D01*
X118653412Y-100169052D01*
X118768653Y-100204010D01*
X118888500Y-100215814D01*
X119363500Y-100215814D01*
X119483347Y-100204010D01*
X119598588Y-100169052D01*
X119704795Y-100112283D01*
X119763629Y-100064000D01*
X119952773Y-100064000D01*
X119989600Y-100067627D01*
X120026427Y-100064000D01*
X120026435Y-100064000D01*
X120038414Y-100062820D01*
X118647816Y-101453418D01*
X118646500Y-101351250D01*
X118488250Y-101193000D01*
X117667500Y-101193000D01*
X117667500Y-102063750D01*
X117825750Y-102222000D01*
X117878376Y-102222859D01*
X115827720Y-104273515D01*
X115799105Y-104296999D01*
X115705381Y-104411202D01*
X115635739Y-104541494D01*
X115592853Y-104682869D01*
X115582000Y-104793060D01*
X115582000Y-104793067D01*
X115578373Y-104829894D01*
X115582000Y-104866722D01*
X115582001Y-106898686D01*
X114832000Y-106898686D01*
X114758487Y-106905926D01*
X114687800Y-106927369D01*
X114622653Y-106962191D01*
X114565552Y-107009052D01*
X114518691Y-107066153D01*
X114483869Y-107131300D01*
X114462426Y-107201987D01*
X114455186Y-107275500D01*
X114455186Y-110275500D01*
X114462426Y-110349013D01*
X114483869Y-110419700D01*
X114518691Y-110484847D01*
X114565552Y-110541948D01*
X114622653Y-110588809D01*
X114687800Y-110623631D01*
X114758487Y-110645074D01*
X114832000Y-110652314D01*
X117832000Y-110652314D01*
X117905513Y-110645074D01*
X117976200Y-110623631D01*
X118041347Y-110588809D01*
X118098448Y-110541948D01*
X118145309Y-110484847D01*
X118180131Y-110419700D01*
X118201574Y-110349013D01*
X118208814Y-110275500D01*
X118208814Y-110267407D01*
X120102527Y-110267407D01*
X120258835Y-110582163D01*
X120633455Y-110772420D01*
X121037994Y-110885937D01*
X121456906Y-110918350D01*
X121874093Y-110868414D01*
X122273521Y-110738050D01*
X122565165Y-110582163D01*
X122721473Y-110267407D01*
X121412000Y-108957934D01*
X120102527Y-110267407D01*
X118208814Y-110267407D01*
X118208814Y-108820406D01*
X119269150Y-108820406D01*
X119319086Y-109237593D01*
X119449450Y-109637021D01*
X119605337Y-109928665D01*
X119920093Y-110084973D01*
X121229566Y-108775500D01*
X121594434Y-108775500D01*
X122903907Y-110084973D01*
X123218663Y-109928665D01*
X123335384Y-109698837D01*
X125395000Y-109698837D01*
X125395000Y-110265163D01*
X125505485Y-110820607D01*
X125722208Y-111343823D01*
X126036842Y-111814706D01*
X126437294Y-112215158D01*
X126908177Y-112529792D01*
X127431393Y-112746515D01*
X127986837Y-112857000D01*
X128553163Y-112857000D01*
X129108607Y-112746515D01*
X129631823Y-112529792D01*
X130102706Y-112215158D01*
X130503158Y-111814706D01*
X130817792Y-111343823D01*
X131034515Y-110820607D01*
X131145000Y-110265163D01*
X131145000Y-109698837D01*
X131034515Y-109143393D01*
X130817792Y-108620177D01*
X130503158Y-108149294D01*
X130102706Y-107748842D01*
X129631823Y-107434208D01*
X129108607Y-107217485D01*
X128553163Y-107107000D01*
X127986837Y-107107000D01*
X127431393Y-107217485D01*
X126908177Y-107434208D01*
X126437294Y-107748842D01*
X126036842Y-108149294D01*
X125722208Y-108620177D01*
X125505485Y-109143393D01*
X125395000Y-109698837D01*
X123335384Y-109698837D01*
X123408920Y-109554045D01*
X123522437Y-109149506D01*
X123554850Y-108730594D01*
X123504914Y-108313407D01*
X123374550Y-107913979D01*
X123218663Y-107622335D01*
X122903907Y-107466027D01*
X121594434Y-108775500D01*
X121229566Y-108775500D01*
X119920093Y-107466027D01*
X119605337Y-107622335D01*
X119415080Y-107996955D01*
X119301563Y-108401494D01*
X119269150Y-108820406D01*
X118208814Y-108820406D01*
X118208814Y-107283593D01*
X120102527Y-107283593D01*
X121412000Y-108593066D01*
X122721473Y-107283593D01*
X122565165Y-106968837D01*
X122190545Y-106778580D01*
X121786006Y-106665063D01*
X121367094Y-106632650D01*
X120949907Y-106682586D01*
X120550479Y-106812950D01*
X120258835Y-106968837D01*
X120102527Y-107283593D01*
X118208814Y-107283593D01*
X118208814Y-107275500D01*
X118201574Y-107201987D01*
X118180131Y-107131300D01*
X118145309Y-107066153D01*
X118098448Y-107009052D01*
X118041347Y-106962191D01*
X117976200Y-106927369D01*
X117905513Y-106905926D01*
X117832000Y-106898686D01*
X117082000Y-106898686D01*
X117082000Y-105140553D01*
X120664000Y-101558554D01*
X120664000Y-101686180D01*
X120697626Y-101855228D01*
X120763585Y-102014468D01*
X120859343Y-102157780D01*
X120981220Y-102279657D01*
X121124532Y-102375415D01*
X121283772Y-102441374D01*
X121452820Y-102475000D01*
X121625180Y-102475000D01*
X121794228Y-102441374D01*
X121953468Y-102375415D01*
X122096780Y-102279657D01*
X122218657Y-102157780D01*
X122314415Y-102014468D01*
X122380374Y-101855228D01*
X122414000Y-101686180D01*
X122414000Y-101513820D01*
X122380374Y-101344772D01*
X122314415Y-101185532D01*
X122243901Y-101080000D01*
X123365171Y-101080000D01*
X123424005Y-101128283D01*
X123530212Y-101185052D01*
X123645453Y-101220010D01*
X123765300Y-101231814D01*
X124240300Y-101231814D01*
X124360147Y-101220010D01*
X124475388Y-101185052D01*
X124581595Y-101128283D01*
X124674686Y-101051886D01*
X124751083Y-100958795D01*
X124807852Y-100852588D01*
X124842810Y-100737347D01*
X124854614Y-100617500D01*
X124854614Y-100042500D01*
X124842810Y-99922653D01*
X124807852Y-99807412D01*
X124751083Y-99701205D01*
X124674686Y-99608114D01*
X124581595Y-99531717D01*
X124475388Y-99474948D01*
X124409628Y-99455000D01*
X124475388Y-99435052D01*
X124581595Y-99378283D01*
X124674686Y-99301886D01*
X124751083Y-99208795D01*
X124807852Y-99102588D01*
X124842810Y-98987347D01*
X124854614Y-98867500D01*
X124854614Y-98292500D01*
X124842810Y-98172653D01*
X124807852Y-98057412D01*
X124752800Y-97954417D01*
X124752800Y-97360183D01*
X124807852Y-97257188D01*
X124842810Y-97141947D01*
X124854614Y-97022100D01*
X124854614Y-96447100D01*
X124842810Y-96327253D01*
X124807852Y-96212012D01*
X124751083Y-96105805D01*
X124737092Y-96088757D01*
X124831178Y-96038467D01*
X124927564Y-95959364D01*
X125006667Y-95862978D01*
X125065446Y-95753011D01*
X125101641Y-95633690D01*
X125113863Y-95509600D01*
X125110800Y-95271850D01*
X124952550Y-95113600D01*
X124131800Y-95113600D01*
X124131800Y-95133600D01*
X123873800Y-95133600D01*
X123873800Y-95113600D01*
X123053050Y-95113600D01*
X122894800Y-95271850D01*
X122891737Y-95509600D01*
X122903959Y-95633690D01*
X122940154Y-95753011D01*
X122998933Y-95862978D01*
X123078036Y-95959364D01*
X123174422Y-96038467D01*
X123268508Y-96088757D01*
X123254517Y-96105805D01*
X123197748Y-96212012D01*
X123162790Y-96327253D01*
X123150986Y-96447100D01*
X123150986Y-97022100D01*
X123162790Y-97141947D01*
X123197748Y-97257188D01*
X123252801Y-97360184D01*
X123252800Y-97954417D01*
X123197748Y-98057412D01*
X123162790Y-98172653D01*
X123150986Y-98292500D01*
X123150986Y-98867500D01*
X123162790Y-98987347D01*
X123197748Y-99102588D01*
X123254517Y-99208795D01*
X123330914Y-99301886D01*
X123424005Y-99378283D01*
X123530212Y-99435052D01*
X123595972Y-99455000D01*
X123530212Y-99474948D01*
X123424005Y-99531717D01*
X123365171Y-99580000D01*
X122243901Y-99580000D01*
X122314415Y-99474468D01*
X122380374Y-99315228D01*
X122414000Y-99146180D01*
X122414000Y-98973820D01*
X122380374Y-98804772D01*
X122314415Y-98645532D01*
X122218657Y-98502220D01*
X122141437Y-98425000D01*
X122218657Y-98347780D01*
X122314415Y-98204468D01*
X122380374Y-98045228D01*
X122414000Y-97876180D01*
X122414000Y-97703820D01*
X122380374Y-97534772D01*
X122314415Y-97375532D01*
X122218657Y-97232220D01*
X122141437Y-97155000D01*
X122218657Y-97077780D01*
X122314415Y-96934468D01*
X122380374Y-96775228D01*
X122414000Y-96606180D01*
X122414000Y-96433820D01*
X122380374Y-96264772D01*
X122314415Y-96105532D01*
X122218657Y-95962220D01*
X122141437Y-95885000D01*
X122218657Y-95807780D01*
X122314415Y-95664468D01*
X122380374Y-95505228D01*
X122414000Y-95336180D01*
X122414000Y-95163820D01*
X122380374Y-94994772D01*
X122314415Y-94835532D01*
X122218657Y-94692220D01*
X122141437Y-94615000D01*
X122218657Y-94537780D01*
X122270895Y-94459600D01*
X122891737Y-94459600D01*
X122894800Y-94697350D01*
X123053050Y-94855600D01*
X123873800Y-94855600D01*
X123873800Y-93984850D01*
X124131800Y-93984850D01*
X124131800Y-94855600D01*
X124952550Y-94855600D01*
X125110800Y-94697350D01*
X125113863Y-94459600D01*
X125101641Y-94335510D01*
X125065446Y-94216189D01*
X125006667Y-94106222D01*
X124927564Y-94009836D01*
X124831178Y-93930733D01*
X124721211Y-93871954D01*
X124601890Y-93835759D01*
X124477800Y-93823537D01*
X124290050Y-93826600D01*
X124131800Y-93984850D01*
X123873800Y-93984850D01*
X123715550Y-93826600D01*
X123527800Y-93823537D01*
X123403710Y-93835759D01*
X123284389Y-93871954D01*
X123174422Y-93930733D01*
X123078036Y-94009836D01*
X122998933Y-94106222D01*
X122940154Y-94216189D01*
X122903959Y-94335510D01*
X122891737Y-94459600D01*
X122270895Y-94459600D01*
X122314415Y-94394468D01*
X122380374Y-94235228D01*
X122414000Y-94066180D01*
X122414000Y-93893820D01*
X122380374Y-93724772D01*
X122314415Y-93565532D01*
X122218657Y-93422220D01*
X122096780Y-93300343D01*
X121953468Y-93204585D01*
X121794228Y-93138626D01*
X121625180Y-93105000D01*
X121452820Y-93105000D01*
X121283772Y-93138626D01*
X121124532Y-93204585D01*
X120981220Y-93300343D01*
X120859343Y-93422220D01*
X120763585Y-93565532D01*
X120697626Y-93724772D01*
X120664000Y-93893820D01*
X120664000Y-94066180D01*
X120697626Y-94235228D01*
X120763585Y-94394468D01*
X120859343Y-94537780D01*
X120936563Y-94615000D01*
X120859343Y-94692220D01*
X120763585Y-94835532D01*
X120697626Y-94994772D01*
X120664000Y-95163820D01*
X120664000Y-95336180D01*
X120697626Y-95505228D01*
X120763585Y-95664468D01*
X120859343Y-95807780D01*
X120936563Y-95885000D01*
X120859343Y-95962220D01*
X120763585Y-96105532D01*
X120697626Y-96264772D01*
X120664000Y-96433820D01*
X120664000Y-96606180D01*
X120697626Y-96775228D01*
X120763585Y-96934468D01*
X120834099Y-97040000D01*
X120557795Y-97040000D01*
X120550495Y-97031105D01*
X120436293Y-96937381D01*
X120306001Y-96867739D01*
X120164626Y-96824853D01*
X120054435Y-96814000D01*
X120054427Y-96814000D01*
X120017600Y-96810373D01*
X119980773Y-96814000D01*
X119763629Y-96814000D01*
X119704795Y-96765717D01*
X119598588Y-96708948D01*
X119483347Y-96673990D01*
X119363500Y-96662186D01*
X118888500Y-96662186D01*
X118768653Y-96673990D01*
X118653412Y-96708948D01*
X118547205Y-96765717D01*
X118488371Y-96814000D01*
X118394038Y-96814000D01*
X118475964Y-96746764D01*
X118555067Y-96650378D01*
X118613846Y-96540411D01*
X118650041Y-96421090D01*
X118662263Y-96297000D01*
X118659200Y-96059250D01*
X118500950Y-95901000D01*
X117680200Y-95901000D01*
X117680200Y-95921000D01*
X117422200Y-95921000D01*
X117422200Y-95901000D01*
X116080000Y-95901000D01*
X116080000Y-95921000D01*
X115822000Y-95921000D01*
X115822000Y-95901000D01*
X115001250Y-95901000D01*
X114843000Y-96059250D01*
X114839937Y-96297000D01*
X114852159Y-96421090D01*
X114888354Y-96540411D01*
X114947133Y-96650378D01*
X115026236Y-96746764D01*
X115056986Y-96772000D01*
X113834661Y-96772000D01*
X112309661Y-95247000D01*
X114839937Y-95247000D01*
X114843000Y-95484750D01*
X115001250Y-95643000D01*
X115822000Y-95643000D01*
X115822000Y-94772250D01*
X116080000Y-94772250D01*
X116080000Y-95643000D01*
X117422200Y-95643000D01*
X117422200Y-94772250D01*
X117680200Y-94772250D01*
X117680200Y-95643000D01*
X118500950Y-95643000D01*
X118659200Y-95484750D01*
X118662263Y-95247000D01*
X118650041Y-95122910D01*
X118613846Y-95003589D01*
X118555067Y-94893622D01*
X118475964Y-94797236D01*
X118379578Y-94718133D01*
X118269611Y-94659354D01*
X118150290Y-94623159D01*
X118026200Y-94610937D01*
X117838450Y-94614000D01*
X117680200Y-94772250D01*
X117422200Y-94772250D01*
X117263950Y-94614000D01*
X117076200Y-94610937D01*
X116952110Y-94623159D01*
X116832789Y-94659354D01*
X116751100Y-94703018D01*
X116669411Y-94659354D01*
X116550090Y-94623159D01*
X116426000Y-94610937D01*
X116238250Y-94614000D01*
X116080000Y-94772250D01*
X115822000Y-94772250D01*
X115663750Y-94614000D01*
X115476000Y-94610937D01*
X115351910Y-94623159D01*
X115232589Y-94659354D01*
X115122622Y-94718133D01*
X115026236Y-94797236D01*
X114947133Y-94893622D01*
X114888354Y-95003589D01*
X114852159Y-95122910D01*
X114839937Y-95247000D01*
X112309661Y-95247000D01*
X110842814Y-93780154D01*
X110842814Y-91464000D01*
X110835574Y-91390487D01*
X110814131Y-91319800D01*
X110779309Y-91254653D01*
X110732448Y-91197552D01*
X110675347Y-91150691D01*
X110610200Y-91115869D01*
X110539513Y-91094426D01*
X110466000Y-91087186D01*
X107466000Y-91087186D01*
X107392487Y-91094426D01*
X107321800Y-91115869D01*
X107256653Y-91150691D01*
X107199552Y-91197552D01*
X107152691Y-91254653D01*
X107117869Y-91319800D01*
X107096426Y-91390487D01*
X107089186Y-91464000D01*
X104286000Y-91464000D01*
X104286000Y-83282837D01*
X104821000Y-83282837D01*
X104821000Y-83849163D01*
X104931485Y-84404607D01*
X105148208Y-84927823D01*
X105462842Y-85398706D01*
X105863294Y-85799158D01*
X106334177Y-86113792D01*
X106857393Y-86330515D01*
X107412837Y-86441000D01*
X107979163Y-86441000D01*
X108534607Y-86330515D01*
X109057823Y-86113792D01*
X109528706Y-85799158D01*
X109929158Y-85398706D01*
X110243792Y-84927823D01*
X110358319Y-84651329D01*
X114457000Y-84651329D01*
X114457000Y-85020671D01*
X114529056Y-85382917D01*
X114670397Y-85724145D01*
X114875593Y-86031243D01*
X115136757Y-86292407D01*
X115443855Y-86497603D01*
X115785083Y-86638944D01*
X116147329Y-86711000D01*
X116516671Y-86711000D01*
X116878917Y-86638944D01*
X117220145Y-86497603D01*
X117462001Y-86336000D01*
X119275937Y-86336000D01*
X119288159Y-86460090D01*
X119324354Y-86579411D01*
X119383133Y-86689378D01*
X119462236Y-86785764D01*
X119558622Y-86864867D01*
X119668589Y-86923646D01*
X119787910Y-86959841D01*
X119912000Y-86972063D01*
X121124750Y-86969000D01*
X121283000Y-86810750D01*
X121283000Y-84965000D01*
X121541000Y-84965000D01*
X121541000Y-86810750D01*
X121699250Y-86969000D01*
X122912000Y-86972063D01*
X123036090Y-86959841D01*
X123155411Y-86923646D01*
X123265378Y-86864867D01*
X123361764Y-86785764D01*
X123440867Y-86689378D01*
X123499646Y-86579411D01*
X123535841Y-86460090D01*
X123548063Y-86336000D01*
X123545000Y-85123250D01*
X123386750Y-84965000D01*
X121541000Y-84965000D01*
X121283000Y-84965000D01*
X119437250Y-84965000D01*
X119279000Y-85123250D01*
X119275937Y-86336000D01*
X117462001Y-86336000D01*
X117527243Y-86292407D01*
X117788407Y-86031243D01*
X117993603Y-85724145D01*
X118134944Y-85382917D01*
X118207000Y-85020671D01*
X118207000Y-84651329D01*
X118134944Y-84289083D01*
X117993603Y-83947855D01*
X117788407Y-83640757D01*
X117527243Y-83379593D01*
X117462002Y-83336000D01*
X119275937Y-83336000D01*
X119279000Y-84548750D01*
X119437250Y-84707000D01*
X121283000Y-84707000D01*
X121283000Y-82861250D01*
X121541000Y-82861250D01*
X121541000Y-84707000D01*
X123386750Y-84707000D01*
X123545000Y-84548750D01*
X123548063Y-83336000D01*
X123542827Y-83282837D01*
X125395000Y-83282837D01*
X125395000Y-83849163D01*
X125505485Y-84404607D01*
X125722208Y-84927823D01*
X126036842Y-85398706D01*
X126437294Y-85799158D01*
X126908177Y-86113792D01*
X127431393Y-86330515D01*
X127986837Y-86441000D01*
X128553163Y-86441000D01*
X129108607Y-86330515D01*
X129631823Y-86113792D01*
X130102706Y-85799158D01*
X130503158Y-85398706D01*
X130817792Y-84927823D01*
X131034515Y-84404607D01*
X131145000Y-83849163D01*
X131145000Y-83282837D01*
X131034515Y-82727393D01*
X130817792Y-82204177D01*
X130503158Y-81733294D01*
X130102706Y-81332842D01*
X129631823Y-81018208D01*
X129108607Y-80801485D01*
X128553163Y-80691000D01*
X127986837Y-80691000D01*
X127431393Y-80801485D01*
X126908177Y-81018208D01*
X126437294Y-81332842D01*
X126036842Y-81733294D01*
X125722208Y-82204177D01*
X125505485Y-82727393D01*
X125395000Y-83282837D01*
X123542827Y-83282837D01*
X123535841Y-83211910D01*
X123499646Y-83092589D01*
X123440867Y-82982622D01*
X123361764Y-82886236D01*
X123265378Y-82807133D01*
X123155411Y-82748354D01*
X123036090Y-82712159D01*
X122912000Y-82699937D01*
X121699250Y-82703000D01*
X121541000Y-82861250D01*
X121283000Y-82861250D01*
X121124750Y-82703000D01*
X119912000Y-82699937D01*
X119787910Y-82712159D01*
X119668589Y-82748354D01*
X119558622Y-82807133D01*
X119462236Y-82886236D01*
X119383133Y-82982622D01*
X119324354Y-83092589D01*
X119288159Y-83211910D01*
X119275937Y-83336000D01*
X117462002Y-83336000D01*
X117220145Y-83174397D01*
X116878917Y-83033056D01*
X116516671Y-82961000D01*
X116147329Y-82961000D01*
X115785083Y-83033056D01*
X115443855Y-83174397D01*
X115136757Y-83379593D01*
X114875593Y-83640757D01*
X114670397Y-83947855D01*
X114529056Y-84289083D01*
X114457000Y-84651329D01*
X110358319Y-84651329D01*
X110460515Y-84404607D01*
X110571000Y-83849163D01*
X110571000Y-83282837D01*
X110460515Y-82727393D01*
X110243792Y-82204177D01*
X109929158Y-81733294D01*
X109528706Y-81332842D01*
X109057823Y-81018208D01*
X108534607Y-80801485D01*
X107979163Y-80691000D01*
X107412837Y-80691000D01*
X106857393Y-80801485D01*
X106334177Y-81018208D01*
X105863294Y-81332842D01*
X105462842Y-81733294D01*
X105148208Y-82204177D01*
X104931485Y-82727393D01*
X104821000Y-83282837D01*
X104286000Y-83282837D01*
X104286000Y-80156000D01*
X131680000Y-80156000D01*
X131680001Y-112756353D01*
%TD*%
M02*
