%TF.GenerationSoftware,KiCad,Pcbnew,(5.1.6)-1*%
%TF.CreationDate,2021-01-22T14:39:17+01:00*%
%TF.ProjectId,LambdaBuffer,4c616d62-6461-4427-9566-6665722e6b69,rev?*%
%TF.SameCoordinates,Original*%
%TF.FileFunction,Paste,Bot*%
%TF.FilePolarity,Positive*%
%FSLAX46Y46*%
G04 Gerber Fmt 4.6, Leading zero omitted, Abs format (unit mm)*
G04 Created by KiCad (PCBNEW (5.1.6)-1) date 2021-01-22 14:39:17*
%MOMM*%
%LPD*%
G01*
G04 APERTURE LIST*
G04 APERTURE END LIST*
%TO.C,R6*%
G36*
G01*
X124240300Y-99105000D02*
X123765300Y-99105000D01*
G75*
G02*
X123527800Y-98867500I0J237500D01*
G01*
X123527800Y-98292500D01*
G75*
G02*
X123765300Y-98055000I237500J0D01*
G01*
X124240300Y-98055000D01*
G75*
G02*
X124477800Y-98292500I0J-237500D01*
G01*
X124477800Y-98867500D01*
G75*
G02*
X124240300Y-99105000I-237500J0D01*
G01*
G37*
G36*
G01*
X124240300Y-100855000D02*
X123765300Y-100855000D01*
G75*
G02*
X123527800Y-100617500I0J237500D01*
G01*
X123527800Y-100042500D01*
G75*
G02*
X123765300Y-99805000I237500J0D01*
G01*
X124240300Y-99805000D01*
G75*
G02*
X124477800Y-100042500I0J-237500D01*
G01*
X124477800Y-100617500D01*
G75*
G02*
X124240300Y-100855000I-237500J0D01*
G01*
G37*
%TD*%
%TO.C,C6*%
G36*
G01*
X124240300Y-95509600D02*
X123765300Y-95509600D01*
G75*
G02*
X123527800Y-95272100I0J237500D01*
G01*
X123527800Y-94697100D01*
G75*
G02*
X123765300Y-94459600I237500J0D01*
G01*
X124240300Y-94459600D01*
G75*
G02*
X124477800Y-94697100I0J-237500D01*
G01*
X124477800Y-95272100D01*
G75*
G02*
X124240300Y-95509600I-237500J0D01*
G01*
G37*
G36*
G01*
X124240300Y-97259600D02*
X123765300Y-97259600D01*
G75*
G02*
X123527800Y-97022100I0J237500D01*
G01*
X123527800Y-96447100D01*
G75*
G02*
X123765300Y-96209600I237500J0D01*
G01*
X124240300Y-96209600D01*
G75*
G02*
X124477800Y-96447100I0J-237500D01*
G01*
X124477800Y-97022100D01*
G75*
G02*
X124240300Y-97259600I-237500J0D01*
G01*
G37*
%TD*%
%TO.C,C5*%
G36*
G01*
X119363500Y-98089000D02*
X118888500Y-98089000D01*
G75*
G02*
X118651000Y-97851500I0J237500D01*
G01*
X118651000Y-97276500D01*
G75*
G02*
X118888500Y-97039000I237500J0D01*
G01*
X119363500Y-97039000D01*
G75*
G02*
X119601000Y-97276500I0J-237500D01*
G01*
X119601000Y-97851500D01*
G75*
G02*
X119363500Y-98089000I-237500J0D01*
G01*
G37*
G36*
G01*
X119363500Y-99839000D02*
X118888500Y-99839000D01*
G75*
G02*
X118651000Y-99601500I0J237500D01*
G01*
X118651000Y-99026500D01*
G75*
G02*
X118888500Y-98789000I237500J0D01*
G01*
X119363500Y-98789000D01*
G75*
G02*
X119601000Y-99026500I0J-237500D01*
G01*
X119601000Y-99601500D01*
G75*
G02*
X119363500Y-99839000I-237500J0D01*
G01*
G37*
%TD*%
%TO.C,C4*%
G36*
G01*
X117788700Y-96297000D02*
X117313700Y-96297000D01*
G75*
G02*
X117076200Y-96059500I0J237500D01*
G01*
X117076200Y-95484500D01*
G75*
G02*
X117313700Y-95247000I237500J0D01*
G01*
X117788700Y-95247000D01*
G75*
G02*
X118026200Y-95484500I0J-237500D01*
G01*
X118026200Y-96059500D01*
G75*
G02*
X117788700Y-96297000I-237500J0D01*
G01*
G37*
G36*
G01*
X117788700Y-98047000D02*
X117313700Y-98047000D01*
G75*
G02*
X117076200Y-97809500I0J237500D01*
G01*
X117076200Y-97234500D01*
G75*
G02*
X117313700Y-96997000I237500J0D01*
G01*
X117788700Y-96997000D01*
G75*
G02*
X118026200Y-97234500I0J-237500D01*
G01*
X118026200Y-97809500D01*
G75*
G02*
X117788700Y-98047000I-237500J0D01*
G01*
G37*
%TD*%
%TO.C,C3*%
G36*
G01*
X115713500Y-100539000D02*
X116188500Y-100539000D01*
G75*
G02*
X116426000Y-100776500I0J-237500D01*
G01*
X116426000Y-101351500D01*
G75*
G02*
X116188500Y-101589000I-237500J0D01*
G01*
X115713500Y-101589000D01*
G75*
G02*
X115476000Y-101351500I0J237500D01*
G01*
X115476000Y-100776500D01*
G75*
G02*
X115713500Y-100539000I237500J0D01*
G01*
G37*
G36*
G01*
X115713500Y-98789000D02*
X116188500Y-98789000D01*
G75*
G02*
X116426000Y-99026500I0J-237500D01*
G01*
X116426000Y-99601500D01*
G75*
G02*
X116188500Y-99839000I-237500J0D01*
G01*
X115713500Y-99839000D01*
G75*
G02*
X115476000Y-99601500I0J237500D01*
G01*
X115476000Y-99026500D01*
G75*
G02*
X115713500Y-98789000I237500J0D01*
G01*
G37*
%TD*%
%TO.C,C2*%
G36*
G01*
X115713500Y-96997000D02*
X116188500Y-96997000D01*
G75*
G02*
X116426000Y-97234500I0J-237500D01*
G01*
X116426000Y-97809500D01*
G75*
G02*
X116188500Y-98047000I-237500J0D01*
G01*
X115713500Y-98047000D01*
G75*
G02*
X115476000Y-97809500I0J237500D01*
G01*
X115476000Y-97234500D01*
G75*
G02*
X115713500Y-96997000I237500J0D01*
G01*
G37*
G36*
G01*
X115713500Y-95247000D02*
X116188500Y-95247000D01*
G75*
G02*
X116426000Y-95484500I0J-237500D01*
G01*
X116426000Y-96059500D01*
G75*
G02*
X116188500Y-96297000I-237500J0D01*
G01*
X115713500Y-96297000D01*
G75*
G02*
X115476000Y-96059500I0J237500D01*
G01*
X115476000Y-95484500D01*
G75*
G02*
X115713500Y-95247000I237500J0D01*
G01*
G37*
%TD*%
%TO.C,C1*%
G36*
G01*
X117776000Y-99839000D02*
X117301000Y-99839000D01*
G75*
G02*
X117063500Y-99601500I0J237500D01*
G01*
X117063500Y-99026500D01*
G75*
G02*
X117301000Y-98789000I237500J0D01*
G01*
X117776000Y-98789000D01*
G75*
G02*
X118013500Y-99026500I0J-237500D01*
G01*
X118013500Y-99601500D01*
G75*
G02*
X117776000Y-99839000I-237500J0D01*
G01*
G37*
G36*
G01*
X117776000Y-101589000D02*
X117301000Y-101589000D01*
G75*
G02*
X117063500Y-101351500I0J237500D01*
G01*
X117063500Y-100776500D01*
G75*
G02*
X117301000Y-100539000I237500J0D01*
G01*
X117776000Y-100539000D01*
G75*
G02*
X118013500Y-100776500I0J-237500D01*
G01*
X118013500Y-101351500D01*
G75*
G02*
X117776000Y-101589000I-237500J0D01*
G01*
G37*
%TD*%
M02*
