%TF.GenerationSoftware,KiCad,Pcbnew,(5.1.6)-1*%
%TF.CreationDate,2021-01-22T14:39:17+01:00*%
%TF.ProjectId,LambdaBuffer,4c616d62-6461-4427-9566-6665722e6b69,rev?*%
%TF.SameCoordinates,Original*%
%TF.FileFunction,Soldermask,Bot*%
%TF.FilePolarity,Negative*%
%FSLAX46Y46*%
G04 Gerber Fmt 4.6, Leading zero omitted, Abs format (unit mm)*
G04 Created by KiCad (PCBNEW (5.1.6)-1) date 2021-01-22 14:39:17*
%MOMM*%
%LPD*%
G01*
G04 APERTURE LIST*
%ADD10C,1.100000*%
%ADD11C,3.100000*%
%ADD12R,3.100000X3.100000*%
G04 APERTURE END LIST*
D10*
%TO.C,U1*%
X121539000Y-101600000D03*
X121539000Y-100330000D03*
X121539000Y-99060000D03*
X121539000Y-93980000D03*
X121539000Y-95250000D03*
X121539000Y-96520000D03*
X121539000Y-97790000D03*
%TD*%
%TO.C,R6*%
G36*
G01*
X124265300Y-99155000D02*
X123740300Y-99155000D01*
G75*
G02*
X123477800Y-98892500I0J262500D01*
G01*
X123477800Y-98267500D01*
G75*
G02*
X123740300Y-98005000I262500J0D01*
G01*
X124265300Y-98005000D01*
G75*
G02*
X124527800Y-98267500I0J-262500D01*
G01*
X124527800Y-98892500D01*
G75*
G02*
X124265300Y-99155000I-262500J0D01*
G01*
G37*
G36*
G01*
X124265300Y-100905000D02*
X123740300Y-100905000D01*
G75*
G02*
X123477800Y-100642500I0J262500D01*
G01*
X123477800Y-100017500D01*
G75*
G02*
X123740300Y-99755000I262500J0D01*
G01*
X124265300Y-99755000D01*
G75*
G02*
X124527800Y-100017500I0J-262500D01*
G01*
X124527800Y-100642500D01*
G75*
G02*
X124265300Y-100905000I-262500J0D01*
G01*
G37*
%TD*%
D11*
%TO.C,J3*%
X121412000Y-108775500D03*
D12*
X116332000Y-108775500D03*
%TD*%
D11*
%TO.C,J2*%
X108966000Y-103124000D03*
X108966000Y-98044000D03*
D12*
X108966000Y-92964000D03*
%TD*%
D11*
%TO.C,J1*%
X116332000Y-84836000D03*
D12*
X121412000Y-84836000D03*
%TD*%
%TO.C,C6*%
G36*
G01*
X124265300Y-95559600D02*
X123740300Y-95559600D01*
G75*
G02*
X123477800Y-95297100I0J262500D01*
G01*
X123477800Y-94672100D01*
G75*
G02*
X123740300Y-94409600I262500J0D01*
G01*
X124265300Y-94409600D01*
G75*
G02*
X124527800Y-94672100I0J-262500D01*
G01*
X124527800Y-95297100D01*
G75*
G02*
X124265300Y-95559600I-262500J0D01*
G01*
G37*
G36*
G01*
X124265300Y-97309600D02*
X123740300Y-97309600D01*
G75*
G02*
X123477800Y-97047100I0J262500D01*
G01*
X123477800Y-96422100D01*
G75*
G02*
X123740300Y-96159600I262500J0D01*
G01*
X124265300Y-96159600D01*
G75*
G02*
X124527800Y-96422100I0J-262500D01*
G01*
X124527800Y-97047100D01*
G75*
G02*
X124265300Y-97309600I-262500J0D01*
G01*
G37*
%TD*%
%TO.C,C5*%
G36*
G01*
X119388500Y-98139000D02*
X118863500Y-98139000D01*
G75*
G02*
X118601000Y-97876500I0J262500D01*
G01*
X118601000Y-97251500D01*
G75*
G02*
X118863500Y-96989000I262500J0D01*
G01*
X119388500Y-96989000D01*
G75*
G02*
X119651000Y-97251500I0J-262500D01*
G01*
X119651000Y-97876500D01*
G75*
G02*
X119388500Y-98139000I-262500J0D01*
G01*
G37*
G36*
G01*
X119388500Y-99889000D02*
X118863500Y-99889000D01*
G75*
G02*
X118601000Y-99626500I0J262500D01*
G01*
X118601000Y-99001500D01*
G75*
G02*
X118863500Y-98739000I262500J0D01*
G01*
X119388500Y-98739000D01*
G75*
G02*
X119651000Y-99001500I0J-262500D01*
G01*
X119651000Y-99626500D01*
G75*
G02*
X119388500Y-99889000I-262500J0D01*
G01*
G37*
%TD*%
%TO.C,C4*%
G36*
G01*
X117813700Y-96347000D02*
X117288700Y-96347000D01*
G75*
G02*
X117026200Y-96084500I0J262500D01*
G01*
X117026200Y-95459500D01*
G75*
G02*
X117288700Y-95197000I262500J0D01*
G01*
X117813700Y-95197000D01*
G75*
G02*
X118076200Y-95459500I0J-262500D01*
G01*
X118076200Y-96084500D01*
G75*
G02*
X117813700Y-96347000I-262500J0D01*
G01*
G37*
G36*
G01*
X117813700Y-98097000D02*
X117288700Y-98097000D01*
G75*
G02*
X117026200Y-97834500I0J262500D01*
G01*
X117026200Y-97209500D01*
G75*
G02*
X117288700Y-96947000I262500J0D01*
G01*
X117813700Y-96947000D01*
G75*
G02*
X118076200Y-97209500I0J-262500D01*
G01*
X118076200Y-97834500D01*
G75*
G02*
X117813700Y-98097000I-262500J0D01*
G01*
G37*
%TD*%
%TO.C,C3*%
G36*
G01*
X115688500Y-100489000D02*
X116213500Y-100489000D01*
G75*
G02*
X116476000Y-100751500I0J-262500D01*
G01*
X116476000Y-101376500D01*
G75*
G02*
X116213500Y-101639000I-262500J0D01*
G01*
X115688500Y-101639000D01*
G75*
G02*
X115426000Y-101376500I0J262500D01*
G01*
X115426000Y-100751500D01*
G75*
G02*
X115688500Y-100489000I262500J0D01*
G01*
G37*
G36*
G01*
X115688500Y-98739000D02*
X116213500Y-98739000D01*
G75*
G02*
X116476000Y-99001500I0J-262500D01*
G01*
X116476000Y-99626500D01*
G75*
G02*
X116213500Y-99889000I-262500J0D01*
G01*
X115688500Y-99889000D01*
G75*
G02*
X115426000Y-99626500I0J262500D01*
G01*
X115426000Y-99001500D01*
G75*
G02*
X115688500Y-98739000I262500J0D01*
G01*
G37*
%TD*%
%TO.C,C2*%
G36*
G01*
X115688500Y-96947000D02*
X116213500Y-96947000D01*
G75*
G02*
X116476000Y-97209500I0J-262500D01*
G01*
X116476000Y-97834500D01*
G75*
G02*
X116213500Y-98097000I-262500J0D01*
G01*
X115688500Y-98097000D01*
G75*
G02*
X115426000Y-97834500I0J262500D01*
G01*
X115426000Y-97209500D01*
G75*
G02*
X115688500Y-96947000I262500J0D01*
G01*
G37*
G36*
G01*
X115688500Y-95197000D02*
X116213500Y-95197000D01*
G75*
G02*
X116476000Y-95459500I0J-262500D01*
G01*
X116476000Y-96084500D01*
G75*
G02*
X116213500Y-96347000I-262500J0D01*
G01*
X115688500Y-96347000D01*
G75*
G02*
X115426000Y-96084500I0J262500D01*
G01*
X115426000Y-95459500D01*
G75*
G02*
X115688500Y-95197000I262500J0D01*
G01*
G37*
%TD*%
%TO.C,C1*%
G36*
G01*
X117801000Y-99889000D02*
X117276000Y-99889000D01*
G75*
G02*
X117013500Y-99626500I0J262500D01*
G01*
X117013500Y-99001500D01*
G75*
G02*
X117276000Y-98739000I262500J0D01*
G01*
X117801000Y-98739000D01*
G75*
G02*
X118063500Y-99001500I0J-262500D01*
G01*
X118063500Y-99626500D01*
G75*
G02*
X117801000Y-99889000I-262500J0D01*
G01*
G37*
G36*
G01*
X117801000Y-101639000D02*
X117276000Y-101639000D01*
G75*
G02*
X117013500Y-101376500I0J262500D01*
G01*
X117013500Y-100751500D01*
G75*
G02*
X117276000Y-100489000I262500J0D01*
G01*
X117801000Y-100489000D01*
G75*
G02*
X118063500Y-100751500I0J-262500D01*
G01*
X118063500Y-101376500D01*
G75*
G02*
X117801000Y-101639000I-262500J0D01*
G01*
G37*
%TD*%
M02*
